<?xml version="1.0" encoding="utf-8" standalone="no"?>
<!DOCTYPE svg PUBLIC "-//W3C//DTD SVG 1.1//EN"
  "http://www.w3.org/Graphics/SVG/1.1/DTD/svg11.dtd">
<svg xmlns:xlink="http://www.w3.org/1999/xlink" width="96.180447pt" height="99.158622pt" viewBox="0 0 96.180447 99.158622" xmlns="http://www.w3.org/2000/svg" version="1.1">
 <metadata>
  <rdf:RDF xmlns:dc="http://purl.org/dc/elements/1.1/" xmlns:cc="http://creativecommons.org/ns#" xmlns:rdf="http://www.w3.org/1999/02/22-rdf-syntax-ns#">
   <cc:Work>
    <dc:type rdf:resource="http://purl.org/dc/dcmitype/StillImage"/>
    <dc:date>2024-01-03T11:44:38.407785</dc:date>
    <dc:format>image/svg+xml</dc:format>
    <dc:creator>
     <cc:Agent>
      <dc:title>Matplotlib v3.8.2, https://matplotlib.org/</dc:title>
     </cc:Agent>
    </dc:creator>
   </cc:Work>
  </rdf:RDF>
 </metadata>
 <defs>
  <style type="text/css">*{stroke-linejoin: round; stroke-linecap: butt}</style>
 </defs>
 <g id="figure_1">
  <g id="patch_1">
   <path d="M 0 99.158622 
L 96.180447 99.158622 
L 96.180447 0 
L 0 0 
L 0 99.158622 
z
" style="fill: none"/>
  </g>
  <g id="axes_1">
   <g id="patch_2">
    <path d="M 32.90625 62.667997 
L 87.26625 62.667997 
L 87.26625 8.307997 
L 32.90625 8.307997 
z
" style="fill: #ffffff"/>
   </g>
   <g id="matplotlib.axis_1">
    <g id="xtick_1">
     <g id="line2d_1">
      <defs>
       <path id="m0f74b29673" d="M 0 0 
L 0 3.5 
" style="stroke: #000000; stroke-width: 0.8"/>
      </defs>
      <g>
       <use xlink:href="#m0f74b29673" x="45.864631" y="62.667997" style="stroke: #000000; stroke-width: 0.8"/>
      </g>
     </g>
     <g id="text_1">
      <!-- 0.50 -->
      <g transform="translate(36.134163 76.82581) scale(0.1 -0.1)">
       <defs>
        <path id="ArialMT-30" d="M 266 2259 
Q 266 3072 433 3567 
Q 600 4063 929 4331 
Q 1259 4600 1759 4600 
Q 2128 4600 2406 4451 
Q 2684 4303 2865 4023 
Q 3047 3744 3150 3342 
Q 3253 2941 3253 2259 
Q 3253 1453 3087 958 
Q 2922 463 2592 192 
Q 2263 -78 1759 -78 
Q 1097 -78 719 397 
Q 266 969 266 2259 
z
M 844 2259 
Q 844 1131 1108 757 
Q 1372 384 1759 384 
Q 2147 384 2411 759 
Q 2675 1134 2675 2259 
Q 2675 3391 2411 3762 
Q 2147 4134 1753 4134 
Q 1366 4134 1134 3806 
Q 844 3388 844 2259 
z
" transform="scale(0.015625)"/>
        <path id="ArialMT-2e" d="M 581 0 
L 581 641 
L 1222 641 
L 1222 0 
L 581 0 
z
" transform="scale(0.015625)"/>
        <path id="ArialMT-35" d="M 266 1200 
L 856 1250 
Q 922 819 1161 601 
Q 1400 384 1738 384 
Q 2144 384 2425 690 
Q 2706 997 2706 1503 
Q 2706 1984 2436 2262 
Q 2166 2541 1728 2541 
Q 1456 2541 1237 2417 
Q 1019 2294 894 2097 
L 366 2166 
L 809 4519 
L 3088 4519 
L 3088 3981 
L 1259 3981 
L 1013 2750 
Q 1425 3038 1878 3038 
Q 2478 3038 2890 2622 
Q 3303 2206 3303 1553 
Q 3303 931 2941 478 
Q 2500 -78 1738 -78 
Q 1113 -78 717 272 
Q 322 622 266 1200 
z
" transform="scale(0.015625)"/>
       </defs>
       <use xlink:href="#ArialMT-30"/>
       <use xlink:href="#ArialMT-2e" x="55.615234"/>
       <use xlink:href="#ArialMT-35" x="83.398438"/>
       <use xlink:href="#ArialMT-30" x="139.013672"/>
      </g>
     </g>
    </g>
    <g id="xtick_2">
     <g id="line2d_2">
      <g>
       <use xlink:href="#m0f74b29673" x="79.249978" y="62.667997" style="stroke: #000000; stroke-width: 0.8"/>
      </g>
     </g>
     <g id="text_2">
      <!-- 0.75 -->
      <g transform="translate(69.519509 76.82581) scale(0.1 -0.1)">
       <defs>
        <path id="ArialMT-37" d="M 303 3981 
L 303 4522 
L 3269 4522 
L 3269 4084 
Q 2831 3619 2401 2847 
Q 1972 2075 1738 1259 
Q 1569 684 1522 0 
L 944 0 
Q 953 541 1156 1306 
Q 1359 2072 1739 2783 
Q 2119 3494 2547 3981 
L 303 3981 
z
" transform="scale(0.015625)"/>
       </defs>
       <use xlink:href="#ArialMT-30"/>
       <use xlink:href="#ArialMT-2e" x="55.615234"/>
       <use xlink:href="#ArialMT-37" x="83.398438"/>
       <use xlink:href="#ArialMT-35" x="139.013672"/>
      </g>
     </g>
    </g>
    <g id="text_3">
     <!-- Bend Prob. 60-90s -->
     <g transform="translate(18.394844 89.971122) scale(0.1 -0.1)">
      <defs>
       <path id="ArialMT-42" d="M 469 0 
L 469 4581 
L 2188 4581 
Q 2713 4581 3030 4442 
Q 3347 4303 3526 4014 
Q 3706 3725 3706 3409 
Q 3706 3116 3547 2856 
Q 3388 2597 3066 2438 
Q 3481 2316 3704 2022 
Q 3928 1728 3928 1328 
Q 3928 1006 3792 729 
Q 3656 453 3456 303 
Q 3256 153 2954 76 
Q 2653 0 2216 0 
L 469 0 
z
M 1075 2656 
L 2066 2656 
Q 2469 2656 2644 2709 
Q 2875 2778 2992 2937 
Q 3109 3097 3109 3338 
Q 3109 3566 3000 3739 
Q 2891 3913 2687 3977 
Q 2484 4041 1991 4041 
L 1075 4041 
L 1075 2656 
z
M 1075 541 
L 2216 541 
Q 2509 541 2628 563 
Q 2838 600 2978 687 
Q 3119 775 3209 942 
Q 3300 1109 3300 1328 
Q 3300 1584 3169 1773 
Q 3038 1963 2805 2039 
Q 2572 2116 2134 2116 
L 1075 2116 
L 1075 541 
z
" transform="scale(0.015625)"/>
       <path id="ArialMT-65" d="M 2694 1069 
L 3275 997 
Q 3138 488 2766 206 
Q 2394 -75 1816 -75 
Q 1088 -75 661 373 
Q 234 822 234 1631 
Q 234 2469 665 2931 
Q 1097 3394 1784 3394 
Q 2450 3394 2872 2941 
Q 3294 2488 3294 1666 
Q 3294 1616 3291 1516 
L 816 1516 
Q 847 969 1125 678 
Q 1403 388 1819 388 
Q 2128 388 2347 550 
Q 2566 713 2694 1069 
z
M 847 1978 
L 2700 1978 
Q 2663 2397 2488 2606 
Q 2219 2931 1791 2931 
Q 1403 2931 1139 2672 
Q 875 2413 847 1978 
z
" transform="scale(0.015625)"/>
       <path id="ArialMT-6e" d="M 422 0 
L 422 3319 
L 928 3319 
L 928 2847 
Q 1294 3394 1984 3394 
Q 2284 3394 2536 3286 
Q 2788 3178 2913 3003 
Q 3038 2828 3088 2588 
Q 3119 2431 3119 2041 
L 3119 0 
L 2556 0 
L 2556 2019 
Q 2556 2363 2490 2533 
Q 2425 2703 2258 2804 
Q 2091 2906 1866 2906 
Q 1506 2906 1245 2678 
Q 984 2450 984 1813 
L 984 0 
L 422 0 
z
" transform="scale(0.015625)"/>
       <path id="ArialMT-64" d="M 2575 0 
L 2575 419 
Q 2259 -75 1647 -75 
Q 1250 -75 917 144 
Q 584 363 401 755 
Q 219 1147 219 1656 
Q 219 2153 384 2558 
Q 550 2963 881 3178 
Q 1213 3394 1622 3394 
Q 1922 3394 2156 3267 
Q 2391 3141 2538 2938 
L 2538 4581 
L 3097 4581 
L 3097 0 
L 2575 0 
z
M 797 1656 
Q 797 1019 1065 703 
Q 1334 388 1700 388 
Q 2069 388 2326 689 
Q 2584 991 2584 1609 
Q 2584 2291 2321 2609 
Q 2059 2928 1675 2928 
Q 1300 2928 1048 2622 
Q 797 2316 797 1656 
z
" transform="scale(0.015625)"/>
       <path id="ArialMT-20" transform="scale(0.015625)"/>
       <path id="ArialMT-50" d="M 494 0 
L 494 4581 
L 2222 4581 
Q 2678 4581 2919 4538 
Q 3256 4481 3484 4323 
Q 3713 4166 3852 3881 
Q 3991 3597 3991 3256 
Q 3991 2672 3619 2267 
Q 3247 1863 2275 1863 
L 1100 1863 
L 1100 0 
L 494 0 
z
M 1100 2403 
L 2284 2403 
Q 2872 2403 3119 2622 
Q 3366 2841 3366 3238 
Q 3366 3525 3220 3729 
Q 3075 3934 2838 4000 
Q 2684 4041 2272 4041 
L 1100 4041 
L 1100 2403 
z
" transform="scale(0.015625)"/>
       <path id="ArialMT-72" d="M 416 0 
L 416 3319 
L 922 3319 
L 922 2816 
Q 1116 3169 1280 3281 
Q 1444 3394 1641 3394 
Q 1925 3394 2219 3213 
L 2025 2691 
Q 1819 2813 1613 2813 
Q 1428 2813 1281 2702 
Q 1134 2591 1072 2394 
Q 978 2094 978 1738 
L 978 0 
L 416 0 
z
" transform="scale(0.015625)"/>
       <path id="ArialMT-6f" d="M 213 1659 
Q 213 2581 725 3025 
Q 1153 3394 1769 3394 
Q 2453 3394 2887 2945 
Q 3322 2497 3322 1706 
Q 3322 1066 3130 698 
Q 2938 331 2570 128 
Q 2203 -75 1769 -75 
Q 1072 -75 642 372 
Q 213 819 213 1659 
z
M 791 1659 
Q 791 1022 1069 705 
Q 1347 388 1769 388 
Q 2188 388 2466 706 
Q 2744 1025 2744 1678 
Q 2744 2294 2464 2611 
Q 2184 2928 1769 2928 
Q 1347 2928 1069 2612 
Q 791 2297 791 1659 
z
" transform="scale(0.015625)"/>
       <path id="ArialMT-62" d="M 941 0 
L 419 0 
L 419 4581 
L 981 4581 
L 981 2947 
Q 1338 3394 1891 3394 
Q 2197 3394 2470 3270 
Q 2744 3147 2920 2923 
Q 3097 2700 3197 2384 
Q 3297 2069 3297 1709 
Q 3297 856 2875 390 
Q 2453 -75 1863 -75 
Q 1275 -75 941 416 
L 941 0 
z
M 934 1684 
Q 934 1088 1097 822 
Q 1363 388 1816 388 
Q 2184 388 2453 708 
Q 2722 1028 2722 1663 
Q 2722 2313 2464 2622 
Q 2206 2931 1841 2931 
Q 1472 2931 1203 2611 
Q 934 2291 934 1684 
z
" transform="scale(0.015625)"/>
       <path id="ArialMT-36" d="M 3184 3459 
L 2625 3416 
Q 2550 3747 2413 3897 
Q 2184 4138 1850 4138 
Q 1581 4138 1378 3988 
Q 1113 3794 959 3422 
Q 806 3050 800 2363 
Q 1003 2672 1297 2822 
Q 1591 2972 1913 2972 
Q 2475 2972 2870 2558 
Q 3266 2144 3266 1488 
Q 3266 1056 3080 686 
Q 2894 316 2569 119 
Q 2244 -78 1831 -78 
Q 1128 -78 684 439 
Q 241 956 241 2144 
Q 241 3472 731 4075 
Q 1159 4600 1884 4600 
Q 2425 4600 2770 4297 
Q 3116 3994 3184 3459 
z
M 888 1484 
Q 888 1194 1011 928 
Q 1134 663 1356 523 
Q 1578 384 1822 384 
Q 2178 384 2434 671 
Q 2691 959 2691 1453 
Q 2691 1928 2437 2201 
Q 2184 2475 1800 2475 
Q 1419 2475 1153 2201 
Q 888 1928 888 1484 
z
" transform="scale(0.015625)"/>
       <path id="ArialMT-2d" d="M 203 1375 
L 203 1941 
L 1931 1941 
L 1931 1375 
L 203 1375 
z
" transform="scale(0.015625)"/>
       <path id="ArialMT-39" d="M 350 1059 
L 891 1109 
Q 959 728 1153 556 
Q 1347 384 1650 384 
Q 1909 384 2104 503 
Q 2300 622 2425 820 
Q 2550 1019 2634 1356 
Q 2719 1694 2719 2044 
Q 2719 2081 2716 2156 
Q 2547 1888 2255 1720 
Q 1963 1553 1622 1553 
Q 1053 1553 659 1965 
Q 266 2378 266 3053 
Q 266 3750 677 4175 
Q 1088 4600 1706 4600 
Q 2153 4600 2523 4359 
Q 2894 4119 3086 3673 
Q 3278 3228 3278 2384 
Q 3278 1506 3087 986 
Q 2897 466 2520 194 
Q 2144 -78 1638 -78 
Q 1100 -78 759 220 
Q 419 519 350 1059 
z
M 2653 3081 
Q 2653 3566 2395 3850 
Q 2138 4134 1775 4134 
Q 1400 4134 1122 3828 
Q 844 3522 844 3034 
Q 844 2597 1108 2323 
Q 1372 2050 1759 2050 
Q 2150 2050 2401 2323 
Q 2653 2597 2653 3081 
z
" transform="scale(0.015625)"/>
       <path id="ArialMT-73" d="M 197 991 
L 753 1078 
Q 800 744 1014 566 
Q 1228 388 1613 388 
Q 2000 388 2187 545 
Q 2375 703 2375 916 
Q 2375 1106 2209 1216 
Q 2094 1291 1634 1406 
Q 1016 1563 777 1677 
Q 538 1791 414 1992 
Q 291 2194 291 2438 
Q 291 2659 392 2848 
Q 494 3038 669 3163 
Q 800 3259 1026 3326 
Q 1253 3394 1513 3394 
Q 1903 3394 2198 3281 
Q 2494 3169 2634 2976 
Q 2775 2784 2828 2463 
L 2278 2388 
Q 2241 2644 2061 2787 
Q 1881 2931 1553 2931 
Q 1166 2931 1000 2803 
Q 834 2675 834 2503 
Q 834 2394 903 2306 
Q 972 2216 1119 2156 
Q 1203 2125 1616 2013 
Q 2213 1853 2448 1751 
Q 2684 1650 2818 1456 
Q 2953 1263 2953 975 
Q 2953 694 2789 445 
Q 2625 197 2315 61 
Q 2006 -75 1616 -75 
Q 969 -75 630 194 
Q 291 463 197 991 
z
" transform="scale(0.015625)"/>
      </defs>
      <use xlink:href="#ArialMT-42"/>
      <use xlink:href="#ArialMT-65" x="66.699219"/>
      <use xlink:href="#ArialMT-6e" x="122.314453"/>
      <use xlink:href="#ArialMT-64" x="177.929688"/>
      <use xlink:href="#ArialMT-20" x="233.544922"/>
      <use xlink:href="#ArialMT-50" x="261.328125"/>
      <use xlink:href="#ArialMT-72" x="328.027344"/>
      <use xlink:href="#ArialMT-6f" x="361.328125"/>
      <use xlink:href="#ArialMT-62" x="416.943359"/>
      <use xlink:href="#ArialMT-2e" x="472.558594"/>
      <use xlink:href="#ArialMT-20" x="500.341797"/>
      <use xlink:href="#ArialMT-36" x="528.125"/>
      <use xlink:href="#ArialMT-30" x="583.740234"/>
      <use xlink:href="#ArialMT-2d" x="639.355469"/>
      <use xlink:href="#ArialMT-39" x="672.65625"/>
      <use xlink:href="#ArialMT-30" x="728.271484"/>
      <use xlink:href="#ArialMT-73" x="783.886719"/>
     </g>
    </g>
   </g>
   <g id="matplotlib.axis_2">
    <g id="ytick_1">
     <g id="line2d_3">
      <defs>
       <path id="m8796d35c2c" d="M 0 0 
L -3.5 0 
" style="stroke: #000000; stroke-width: 0.8"/>
      </defs>
      <g>
       <use xlink:href="#m8796d35c2c" x="32.90625" y="60.197088" style="stroke: #000000; stroke-width: 0.8"/>
      </g>
     </g>
     <g id="text_4">
      <!-- 0 -->
      <g transform="translate(20.345312 63.775994) scale(0.1 -0.1)">
       <use xlink:href="#ArialMT-30"/>
      </g>
     </g>
    </g>
    <g id="ytick_2">
     <g id="line2d_4">
      <g>
       <use xlink:href="#m8796d35c2c" x="32.90625" y="10.778906" style="stroke: #000000; stroke-width: 0.8"/>
      </g>
     </g>
     <g id="text_5">
      <!-- 1 -->
      <g transform="translate(20.345312 14.357812) scale(0.1 -0.1)">
       <defs>
        <path id="ArialMT-31" d="M 2384 0 
L 1822 0 
L 1822 3584 
Q 1619 3391 1289 3197 
Q 959 3003 697 2906 
L 697 3450 
Q 1169 3672 1522 3987 
Q 1875 4303 2022 4600 
L 2384 4600 
L 2384 0 
z
" transform="scale(0.015625)"/>
       </defs>
       <use xlink:href="#ArialMT-31"/>
      </g>
     </g>
    </g>
    <g id="text_6">
     <!-- CDF -->
     <g transform="translate(14.357812 45.763778) rotate(-90) scale(0.1 -0.1)">
      <defs>
       <path id="ArialMT-43" d="M 3763 1606 
L 4369 1453 
Q 4178 706 3683 314 
Q 3188 -78 2472 -78 
Q 1731 -78 1267 223 
Q 803 525 561 1097 
Q 319 1669 319 2325 
Q 319 3041 592 3573 
Q 866 4106 1370 4382 
Q 1875 4659 2481 4659 
Q 3169 4659 3637 4309 
Q 4106 3959 4291 3325 
L 3694 3184 
Q 3534 3684 3231 3912 
Q 2928 4141 2469 4141 
Q 1941 4141 1586 3887 
Q 1231 3634 1087 3207 
Q 944 2781 944 2328 
Q 944 1744 1114 1308 
Q 1284 872 1643 656 
Q 2003 441 2422 441 
Q 2931 441 3284 734 
Q 3638 1028 3763 1606 
z
" transform="scale(0.015625)"/>
       <path id="ArialMT-44" d="M 494 0 
L 494 4581 
L 2072 4581 
Q 2606 4581 2888 4516 
Q 3281 4425 3559 4188 
Q 3922 3881 4101 3404 
Q 4281 2928 4281 2316 
Q 4281 1794 4159 1391 
Q 4038 988 3847 723 
Q 3656 459 3429 307 
Q 3203 156 2883 78 
Q 2563 0 2147 0 
L 494 0 
z
M 1100 541 
L 2078 541 
Q 2531 541 2789 625 
Q 3047 709 3200 863 
Q 3416 1078 3536 1442 
Q 3656 1806 3656 2325 
Q 3656 3044 3420 3430 
Q 3184 3816 2847 3947 
Q 2603 4041 2063 4041 
L 1100 4041 
L 1100 541 
z
" transform="scale(0.015625)"/>
       <path id="ArialMT-46" d="M 525 0 
L 525 4581 
L 3616 4581 
L 3616 4041 
L 1131 4041 
L 1131 2622 
L 3281 2622 
L 3281 2081 
L 1131 2081 
L 1131 0 
L 525 0 
z
" transform="scale(0.015625)"/>
      </defs>
      <use xlink:href="#ArialMT-43"/>
      <use xlink:href="#ArialMT-44" x="72.216797"/>
      <use xlink:href="#ArialMT-46" x="144.433594"/>
     </g>
    </g>
   </g>
   <g id="line2d_5">
    <path d="M 35.377159 60.197088 
L 35.876333 60.197088 
L 36.375506 60.197088 
L 36.87468 60.197088 
L 37.373853 60.197088 
L 37.873027 60.197088 
L 38.3722 60.197088 
L 38.871374 60.197088 
L 39.370548 60.197088 
L 39.869721 60.197088 
L 40.368895 60.197088 
L 40.868068 60.197088 
L 41.367242 60.197088 
L 41.866415 60.197088 
L 42.365589 60.197088 
L 42.864762 60.197088 
L 43.363936 60.197088 
L 43.86311 60.197088 
L 44.362283 60.197088 
L 44.861457 60.197088 
L 45.36063 60.197088 
L 45.859804 60.197088 
L 46.358977 60.197088 
L 46.858151 60.197088 
L 47.357324 60.197088 
L 47.856498 60.032361 
L 48.355671 59.702906 
L 48.854845 59.702906 
L 49.354019 58.714543 
L 49.853192 58.549815 
L 50.352366 58.385088 
L 50.851539 57.890906 
L 51.350713 57.890906 
L 51.849886 57.06727 
L 52.34906 57.06727 
L 52.848233 56.902543 
L 53.347407 56.737815 
L 53.846581 56.078906 
L 54.345754 55.25527 
L 54.844928 54.925815 
L 55.344101 54.596361 
L 55.843275 54.596361 
L 56.342448 54.596361 
L 56.841622 54.431634 
L 57.340795 54.431634 
L 57.839969 54.431634 
L 58.339143 54.431634 
L 58.838316 54.266906 
L 59.33749 54.102179 
L 59.836663 53.937452 
L 60.335837 52.949088 
L 60.83501 52.619634 
L 61.334184 51.960724 
L 61.833357 51.63127 
L 62.332531 50.972361 
L 62.831705 50.478179 
L 63.330878 49.983997 
L 63.830052 48.995634 
L 64.329225 46.854179 
L 64.828399 45.042179 
L 65.327572 43.394906 
L 65.826746 40.923997 
L 66.325919 37.794179 
L 66.825093 34.993815 
L 67.324267 31.534543 
L 67.82344 29.063634 
L 68.322614 26.427997 
L 68.821787 24.45127 
L 69.320961 23.462906 
L 69.820134 21.486179 
L 70.319308 20.662543 
L 70.818481 20.333088 
L 71.317655 19.509452 
L 71.816829 18.521088 
L 72.316002 18.356361 
L 72.815176 18.191634 
L 73.314349 17.862179 
L 73.813523 17.862179 
L 74.312696 17.697452 
L 74.81187 17.038543 
L 75.311043 16.709088 
L 75.810217 16.214906 
L 76.30939 15.885452 
L 76.808564 15.226543 
L 77.307738 13.57927 
L 77.806911 12.920361 
L 78.306085 12.261452 
L 78.805258 11.602543 
L 79.304432 10.943634 
L 79.803605 10.778906 
L 80.302779 10.778906 
L 80.801952 10.778906 
L 81.301126 10.778906 
L 81.8003 10.778906 
L 82.299473 10.778906 
L 82.798647 10.778906 
L 83.29782 10.778906 
L 83.796994 10.778906 
L 84.296167 10.778906 
L 84.795341 10.778906 
" clip-path="url(#pb157ebff97)" style="fill: none; stroke: #333333; stroke-width: 1.5; stroke-linecap: square"/>
   </g>
   <g id="line2d_6">
    <path d="M 35.377159 60.197088 
L 35.876333 60.197088 
L 36.375506 60.197088 
L 36.87468 60.197088 
L 37.373853 60.197088 
L 37.873027 60.197088 
L 38.3722 60.197088 
L 38.871374 60.197088 
L 39.370548 60.197088 
L 39.869721 60.197088 
L 40.368895 60.197088 
L 40.868068 60.197088 
L 41.367242 60.197088 
L 41.866415 60.197088 
L 42.365589 60.197088 
L 42.864762 60.197088 
L 43.363936 60.197088 
L 43.86311 60.197088 
L 44.362283 60.197088 
L 44.861457 60.197088 
L 45.36063 60.197088 
L 45.859804 60.197088 
L 46.358977 60.032361 
L 46.858151 59.867634 
L 47.357324 59.867634 
L 47.856498 59.867634 
L 48.355671 59.702906 
L 48.854845 59.702906 
L 49.354019 59.538179 
L 49.853192 59.373452 
L 50.352366 59.208724 
L 50.851539 58.87927 
L 51.350713 58.549815 
L 51.849886 58.549815 
L 52.34906 58.549815 
L 52.848233 58.385088 
L 53.347407 58.055634 
L 53.846581 57.231997 
L 54.345754 57.231997 
L 54.844928 56.737815 
L 55.344101 56.573088 
L 55.843275 56.408361 
L 56.342448 56.243634 
L 56.841622 56.243634 
L 57.340795 56.078906 
L 57.839969 55.914179 
L 58.339143 55.584724 
L 58.838316 55.419997 
L 59.33749 55.419997 
L 59.836663 55.090543 
L 60.335837 54.925815 
L 60.83501 54.596361 
L 61.334184 54.102179 
L 61.833357 53.772724 
L 62.332531 53.278543 
L 62.831705 51.960724 
L 63.330878 50.478179 
L 63.830052 48.830906 
L 64.329225 46.524724 
L 64.828399 44.712724 
L 65.327572 43.230179 
L 65.826746 40.75927 
L 66.325919 39.770906 
L 66.825093 37.13527 
L 67.324267 34.993815 
L 67.82344 32.028724 
L 68.322614 30.381452 
L 68.821787 28.734179 
L 69.320961 27.251634 
L 69.820134 26.757452 
L 70.319308 26.098543 
L 70.818481 24.45127 
L 71.317655 23.298179 
L 71.816829 22.474543 
L 72.316002 21.815634 
L 72.815176 21.486179 
L 73.314349 21.156724 
L 73.813523 19.838906 
L 74.312696 19.509452 
L 74.81187 18.850543 
L 75.311043 18.356361 
L 75.810217 17.367997 
L 76.30939 16.709088 
L 76.808564 15.720724 
L 77.307738 13.908724 
L 77.806911 12.920361 
L 78.306085 12.096724 
L 78.805258 11.76727 
L 79.304432 11.437815 
L 79.803605 10.943634 
L 80.302779 10.778906 
L 80.801952 10.778906 
L 81.301126 10.778906 
L 81.8003 10.778906 
L 82.299473 10.778906 
L 82.798647 10.778906 
L 83.29782 10.778906 
L 83.796994 10.778906 
L 84.296167 10.778906 
L 84.795341 10.778906 
" clip-path="url(#pb157ebff97)" style="fill: none; stroke: #888888; stroke-width: 1.5; stroke-linecap: square"/>
   </g>
   <g id="line2d_7">
    <path d="M 35.377159 59.538179 
L 35.876333 59.373452 
L 36.375506 59.043997 
L 36.87468 58.714543 
L 37.373853 58.220361 
L 37.873027 57.890906 
L 38.3722 57.890906 
L 38.871374 57.726179 
L 39.370548 57.396724 
L 39.869721 57.396724 
L 40.368895 57.231997 
L 40.868068 57.06727 
L 41.367242 56.902543 
L 41.866415 56.902543 
L 42.365589 56.737815 
L 42.864762 56.573088 
L 43.363936 56.573088 
L 43.86311 56.573088 
L 44.362283 55.914179 
L 44.861457 55.914179 
L 45.36063 55.749452 
L 45.859804 55.25527 
L 46.358977 54.761088 
L 46.858151 54.596361 
L 47.357324 54.266906 
L 47.856498 53.937452 
L 48.355671 53.772724 
L 48.854845 53.278543 
L 49.354019 52.949088 
L 49.853192 52.125452 
L 50.352366 51.466543 
L 50.851539 50.972361 
L 51.350713 50.972361 
L 51.849886 50.972361 
L 52.34906 50.807634 
L 52.848233 50.642906 
L 53.347407 50.313452 
L 53.846581 50.313452 
L 54.345754 50.313452 
L 54.844928 50.313452 
L 55.344101 50.148724 
L 55.843275 50.148724 
L 56.342448 50.148724 
L 56.841622 50.148724 
L 57.340795 49.983997 
L 57.839969 49.983997 
L 58.339143 49.983997 
L 58.838316 49.983997 
L 59.33749 49.81927 
L 59.836663 49.81927 
L 60.335837 49.81927 
L 60.83501 49.654543 
L 61.334184 49.325088 
L 61.833357 48.830906 
L 62.332531 48.666179 
L 62.831705 48.666179 
L 63.330878 48.501452 
L 63.830052 48.501452 
L 64.329225 48.171997 
L 64.828399 48.00727 
L 65.327572 47.842543 
L 65.826746 47.513088 
L 66.325919 47.348361 
L 66.825093 47.018906 
L 67.324267 46.854179 
L 67.82344 46.524724 
L 68.322614 46.524724 
L 68.821787 46.359997 
L 69.320961 46.030543 
L 69.820134 45.701088 
L 70.319308 45.206906 
L 70.818481 43.889088 
L 71.317655 43.394906 
L 71.816829 42.57127 
L 72.316002 41.088724 
L 72.815176 39.441452 
L 73.314349 37.13527 
L 73.813523 35.158543 
L 74.312696 31.863997 
L 74.81187 30.051997 
L 75.311043 26.592724 
L 75.810217 22.968724 
L 76.30939 21.156724 
L 76.808564 18.685815 
L 77.307738 17.038543 
L 77.806911 15.226543 
L 78.306085 13.57927 
L 78.805258 13.249815 
L 79.304432 12.920361 
L 79.803605 11.437815 
L 80.302779 11.273088 
L 80.801952 11.108361 
L 81.301126 10.778906 
L 81.8003 10.778906 
L 82.299473 10.778906 
L 82.798647 10.778906 
L 83.29782 10.778906 
L 83.796994 10.778906 
L 84.296167 10.778906 
L 84.795341 10.778906 
" clip-path="url(#pb157ebff97)" style="fill: none; stroke: #f5720f; stroke-width: 1.5; stroke-linecap: square"/>
   </g>
   <g id="line2d_8">
    <path d="M 35.377159 60.197088 
L 35.876333 60.197088 
L 36.375506 60.197088 
L 36.87468 60.197088 
L 37.373853 60.197088 
L 37.873027 60.197088 
L 38.3722 60.197088 
L 38.871374 60.197088 
L 39.370548 60.197088 
L 39.869721 60.197088 
L 40.368895 60.197088 
L 40.868068 60.197088 
L 41.367242 60.197088 
L 41.866415 60.197088 
L 42.365589 60.197088 
L 42.864762 60.197088 
L 43.363936 60.197088 
L 43.86311 60.197088 
L 44.362283 60.197088 
L 44.861457 60.197088 
L 45.36063 60.197088 
L 45.859804 60.197088 
L 46.358977 60.197088 
L 46.858151 60.197088 
L 47.357324 59.702906 
L 47.856498 59.208724 
L 48.355671 59.043997 
L 48.854845 58.87927 
L 49.354019 58.714543 
L 49.853192 58.055634 
L 50.352366 57.231997 
L 50.851539 56.902543 
L 51.350713 56.573088 
L 51.849886 55.749452 
L 52.34906 54.925815 
L 52.848233 54.596361 
L 53.347407 54.431634 
L 53.846581 53.772724 
L 54.345754 53.772724 
L 54.844928 53.607997 
L 55.344101 53.607997 
L 55.843275 53.607997 
L 56.342448 53.44327 
L 56.841622 53.44327 
L 57.340795 53.44327 
L 57.839969 53.44327 
L 58.339143 53.44327 
L 58.838316 53.278543 
L 59.33749 53.278543 
L 59.836663 53.278543 
L 60.335837 53.278543 
L 60.83501 53.113815 
L 61.334184 52.784361 
L 61.833357 52.619634 
L 62.332531 52.290179 
L 62.831705 52.125452 
L 63.330878 51.960724 
L 63.830052 51.63127 
L 64.329225 51.63127 
L 64.828399 51.137088 
L 65.327572 50.972361 
L 65.826746 50.807634 
L 66.325919 50.642906 
L 66.825093 49.983997 
L 67.324267 49.325088 
L 67.82344 48.501452 
L 68.322614 48.336724 
L 68.821787 48.171997 
L 69.320961 47.842543 
L 69.820134 47.842543 
L 70.319308 47.183634 
L 70.818481 46.524724 
L 71.317655 46.359997 
L 71.816829 46.19527 
L 72.316002 45.371634 
L 72.815176 44.218543 
L 73.314349 43.230179 
L 73.813523 42.57127 
L 74.312696 40.594543 
L 74.81187 38.288361 
L 75.311043 35.817452 
L 75.810217 33.840724 
L 76.30939 31.69927 
L 76.808564 30.216724 
L 77.307738 28.239997 
L 77.806911 26.26327 
L 78.306085 24.780724 
L 78.805258 23.462906 
L 79.304432 22.474543 
L 79.803605 21.486179 
L 80.302779 20.333088 
L 80.801952 19.179997 
L 81.301126 17.532724 
L 81.8003 15.720724 
L 82.299473 14.402906 
L 82.798647 13.908724 
L 83.29782 12.920361 
L 83.796994 11.602543 
L 84.296167 10.943634 
L 84.795341 10.778906 
" clip-path="url(#pb157ebff97)" style="fill: none; stroke: #fa964b; stroke-width: 1.5; stroke-linecap: square"/>
   </g>
   <g id="patch_3">
    <path d="M 32.90625 62.667997 
L 32.90625 8.307997 
" style="fill: none; stroke: #000000; stroke-width: 0.8; stroke-linejoin: miter; stroke-linecap: square"/>
   </g>
   <g id="patch_4">
    <path d="M 32.90625 62.667997 
L 87.26625 62.667997 
" style="fill: none; stroke: #000000; stroke-width: 0.8; stroke-linejoin: miter; stroke-linecap: square"/>
   </g>
  </g>
 </g>
 <defs>
  <clipPath id="pb157ebff97">
   <rect x="32.90625" y="8.307997" width="54.36" height="54.36"/>
  </clipPath>
 </defs>
</svg>
