<?xml version="1.0" encoding="utf-8" standalone="no"?>
<!DOCTYPE svg PUBLIC "-//W3C//DTD SVG 1.1//EN"
  "http://www.w3.org/Graphics/SVG/1.1/DTD/svg11.dtd">
<svg xmlns:xlink="http://www.w3.org/1999/xlink" width="687.581562pt" height="79.222031pt" viewBox="0 0 687.581562 79.222031" xmlns="http://www.w3.org/2000/svg" version="1.1">
 <metadata>
  <rdf:RDF xmlns:dc="http://purl.org/dc/elements/1.1/" xmlns:cc="http://creativecommons.org/ns#" xmlns:rdf="http://www.w3.org/1999/02/22-rdf-syntax-ns#">
   <cc:Work>
    <dc:type rdf:resource="http://purl.org/dc/dcmitype/StillImage"/>
    <dc:date>2024-02-19T14:00:09.183685</dc:date>
    <dc:format>image/svg+xml</dc:format>
    <dc:creator>
     <cc:Agent>
      <dc:title>Matplotlib v3.8.2, https://matplotlib.org/</dc:title>
     </cc:Agent>
    </dc:creator>
   </cc:Work>
  </rdf:RDF>
 </metadata>
 <defs>
  <style type="text/css">*{stroke-linejoin: round; stroke-linecap: butt}</style>
 </defs>
 <g id="figure_1">
  <g id="patch_1">
   <path d="M 0 79.222031 
L 687.581562 79.222031 
L 687.581562 0 
L 0 0 
L 0 79.222031 
z
" style="fill: none"/>
  </g>
  <g id="axes_1">
   <g id="patch_2">
    <path d="M 52.646875 66.455625 
L 82.326875 66.455625 
L 82.326875 21.935625 
L 52.646875 21.935625 
z
" style="fill: #ffffff"/>
   </g>
   <g id="patch_3">
    <path d="M 53.995966 21.935625 
L 59.676349 21.935625 
L 59.676349 64.335625 
L 53.995966 64.335625 
z
" clip-path="url(#p72db01adce)" style="fill: #333333"/>
   </g>
   <g id="patch_4">
    <path d="M 61.096444 21.935625 
L 66.776827 21.935625 
L 66.776827 61.998419 
L 61.096444 61.998419 
z
" clip-path="url(#p72db01adce)" style="fill: #888888"/>
   </g>
   <g id="patch_5">
    <path d="M 68.196923 21.935625 
L 73.877306 21.935625 
L 73.877306 55.838941 
L 68.196923 55.838941 
z
" clip-path="url(#p72db01adce)" style="fill: #1100ff"/>
   </g>
   <g id="patch_6">
    <path d="M 75.297401 21.935625 
L 80.977784 21.935625 
L 80.977784 54.969531 
L 75.297401 54.969531 
z
" clip-path="url(#p72db01adce)" style="fill: #858dff"/>
   </g>
   <g id="matplotlib.axis_1">
    <g id="xtick_1"/>
    <g id="xtick_2"/>
   </g>
   <g id="matplotlib.axis_2">
    <g id="ytick_1">
     <g id="line2d_1">
      <defs>
       <path id="m82553ebae9" d="M 0 0 
L -3.5 0 
" style="stroke: #000000; stroke-width: 0.8"/>
      </defs>
      <g>
       <use xlink:href="#m82553ebae9" x="52.646875" y="47.38646" style="stroke: #000000; stroke-width: 0.8"/>
      </g>
     </g>
     <g id="text_1">
      <!-- −0.25 -->
      <g transform="translate(20.345313 50.965366) scale(0.1 -0.1)">
       <defs>
        <path id="ArialMT-2212" d="M 3381 1997 
L 356 1997 
L 356 2522 
L 3381 2522 
L 3381 1997 
z
" transform="scale(0.015625)"/>
        <path id="ArialMT-30" d="M 266 2259 
Q 266 3072 433 3567 
Q 600 4063 929 4331 
Q 1259 4600 1759 4600 
Q 2128 4600 2406 4451 
Q 2684 4303 2865 4023 
Q 3047 3744 3150 3342 
Q 3253 2941 3253 2259 
Q 3253 1453 3087 958 
Q 2922 463 2592 192 
Q 2263 -78 1759 -78 
Q 1097 -78 719 397 
Q 266 969 266 2259 
z
M 844 2259 
Q 844 1131 1108 757 
Q 1372 384 1759 384 
Q 2147 384 2411 759 
Q 2675 1134 2675 2259 
Q 2675 3391 2411 3762 
Q 2147 4134 1753 4134 
Q 1366 4134 1134 3806 
Q 844 3388 844 2259 
z
" transform="scale(0.015625)"/>
        <path id="ArialMT-2e" d="M 581 0 
L 581 641 
L 1222 641 
L 1222 0 
L 581 0 
z
" transform="scale(0.015625)"/>
        <path id="ArialMT-32" d="M 3222 541 
L 3222 0 
L 194 0 
Q 188 203 259 391 
Q 375 700 629 1000 
Q 884 1300 1366 1694 
Q 2113 2306 2375 2664 
Q 2638 3022 2638 3341 
Q 2638 3675 2398 3904 
Q 2159 4134 1775 4134 
Q 1369 4134 1125 3890 
Q 881 3647 878 3216 
L 300 3275 
Q 359 3922 746 4261 
Q 1134 4600 1788 4600 
Q 2447 4600 2831 4234 
Q 3216 3869 3216 3328 
Q 3216 3053 3103 2787 
Q 2991 2522 2730 2228 
Q 2469 1934 1863 1422 
Q 1356 997 1212 845 
Q 1069 694 975 541 
L 3222 541 
z
" transform="scale(0.015625)"/>
        <path id="ArialMT-35" d="M 266 1200 
L 856 1250 
Q 922 819 1161 601 
Q 1400 384 1738 384 
Q 2144 384 2425 690 
Q 2706 997 2706 1503 
Q 2706 1984 2436 2262 
Q 2166 2541 1728 2541 
Q 1456 2541 1237 2417 
Q 1019 2294 894 2097 
L 366 2166 
L 809 4519 
L 3088 4519 
L 3088 3981 
L 1259 3981 
L 1013 2750 
Q 1425 3038 1878 3038 
Q 2478 3038 2890 2622 
Q 3303 2206 3303 1553 
Q 3303 931 2941 478 
Q 2500 -78 1738 -78 
Q 1113 -78 717 272 
Q 322 622 266 1200 
z
" transform="scale(0.015625)"/>
       </defs>
       <use xlink:href="#ArialMT-2212"/>
       <use xlink:href="#ArialMT-30" x="58.398438"/>
       <use xlink:href="#ArialMT-2e" x="114.013672"/>
       <use xlink:href="#ArialMT-32" x="141.796875"/>
       <use xlink:href="#ArialMT-35" x="197.412109"/>
      </g>
     </g>
    </g>
    <g id="ytick_2">
     <g id="line2d_2">
      <g>
       <use xlink:href="#m82553ebae9" x="52.646875" y="21.935625" style="stroke: #000000; stroke-width: 0.8"/>
      </g>
     </g>
     <g id="text_2">
      <!-- 0.00 -->
      <g transform="translate(26.185938 25.514531) scale(0.1 -0.1)">
       <use xlink:href="#ArialMT-30"/>
       <use xlink:href="#ArialMT-2e" x="55.615234"/>
       <use xlink:href="#ArialMT-30" x="83.398438"/>
       <use xlink:href="#ArialMT-30" x="139.013672"/>
      </g>
     </g>
    </g>
    <g id="text_3">
     <!-- Mean Prob. -->
     <g transform="translate(14.357813 70.040937) rotate(-90) scale(0.1 -0.1)">
      <defs>
       <path id="ArialMT-4d" d="M 475 0 
L 475 4581 
L 1388 4581 
L 2472 1338 
Q 2622 884 2691 659 
Q 2769 909 2934 1394 
L 4031 4581 
L 4847 4581 
L 4847 0 
L 4263 0 
L 4263 3834 
L 2931 0 
L 2384 0 
L 1059 3900 
L 1059 0 
L 475 0 
z
" transform="scale(0.015625)"/>
       <path id="ArialMT-65" d="M 2694 1069 
L 3275 997 
Q 3138 488 2766 206 
Q 2394 -75 1816 -75 
Q 1088 -75 661 373 
Q 234 822 234 1631 
Q 234 2469 665 2931 
Q 1097 3394 1784 3394 
Q 2450 3394 2872 2941 
Q 3294 2488 3294 1666 
Q 3294 1616 3291 1516 
L 816 1516 
Q 847 969 1125 678 
Q 1403 388 1819 388 
Q 2128 388 2347 550 
Q 2566 713 2694 1069 
z
M 847 1978 
L 2700 1978 
Q 2663 2397 2488 2606 
Q 2219 2931 1791 2931 
Q 1403 2931 1139 2672 
Q 875 2413 847 1978 
z
" transform="scale(0.015625)"/>
       <path id="ArialMT-61" d="M 2588 409 
Q 2275 144 1986 34 
Q 1697 -75 1366 -75 
Q 819 -75 525 192 
Q 231 459 231 875 
Q 231 1119 342 1320 
Q 453 1522 633 1644 
Q 813 1766 1038 1828 
Q 1203 1872 1538 1913 
Q 2219 1994 2541 2106 
Q 2544 2222 2544 2253 
Q 2544 2597 2384 2738 
Q 2169 2928 1744 2928 
Q 1347 2928 1158 2789 
Q 969 2650 878 2297 
L 328 2372 
Q 403 2725 575 2942 
Q 747 3159 1072 3276 
Q 1397 3394 1825 3394 
Q 2250 3394 2515 3294 
Q 2781 3194 2906 3042 
Q 3031 2891 3081 2659 
Q 3109 2516 3109 2141 
L 3109 1391 
Q 3109 606 3145 398 
Q 3181 191 3288 0 
L 2700 0 
Q 2613 175 2588 409 
z
M 2541 1666 
Q 2234 1541 1622 1453 
Q 1275 1403 1131 1340 
Q 988 1278 909 1158 
Q 831 1038 831 891 
Q 831 666 1001 516 
Q 1172 366 1500 366 
Q 1825 366 2078 508 
Q 2331 650 2450 897 
Q 2541 1088 2541 1459 
L 2541 1666 
z
" transform="scale(0.015625)"/>
       <path id="ArialMT-6e" d="M 422 0 
L 422 3319 
L 928 3319 
L 928 2847 
Q 1294 3394 1984 3394 
Q 2284 3394 2536 3286 
Q 2788 3178 2913 3003 
Q 3038 2828 3088 2588 
Q 3119 2431 3119 2041 
L 3119 0 
L 2556 0 
L 2556 2019 
Q 2556 2363 2490 2533 
Q 2425 2703 2258 2804 
Q 2091 2906 1866 2906 
Q 1506 2906 1245 2678 
Q 984 2450 984 1813 
L 984 0 
L 422 0 
z
" transform="scale(0.015625)"/>
       <path id="ArialMT-20" transform="scale(0.015625)"/>
       <path id="ArialMT-50" d="M 494 0 
L 494 4581 
L 2222 4581 
Q 2678 4581 2919 4538 
Q 3256 4481 3484 4323 
Q 3713 4166 3852 3881 
Q 3991 3597 3991 3256 
Q 3991 2672 3619 2267 
Q 3247 1863 2275 1863 
L 1100 1863 
L 1100 0 
L 494 0 
z
M 1100 2403 
L 2284 2403 
Q 2872 2403 3119 2622 
Q 3366 2841 3366 3238 
Q 3366 3525 3220 3729 
Q 3075 3934 2838 4000 
Q 2684 4041 2272 4041 
L 1100 4041 
L 1100 2403 
z
" transform="scale(0.015625)"/>
       <path id="ArialMT-72" d="M 416 0 
L 416 3319 
L 922 3319 
L 922 2816 
Q 1116 3169 1280 3281 
Q 1444 3394 1641 3394 
Q 1925 3394 2219 3213 
L 2025 2691 
Q 1819 2813 1613 2813 
Q 1428 2813 1281 2702 
Q 1134 2591 1072 2394 
Q 978 2094 978 1738 
L 978 0 
L 416 0 
z
" transform="scale(0.015625)"/>
       <path id="ArialMT-6f" d="M 213 1659 
Q 213 2581 725 3025 
Q 1153 3394 1769 3394 
Q 2453 3394 2887 2945 
Q 3322 2497 3322 1706 
Q 3322 1066 3130 698 
Q 2938 331 2570 128 
Q 2203 -75 1769 -75 
Q 1072 -75 642 372 
Q 213 819 213 1659 
z
M 791 1659 
Q 791 1022 1069 705 
Q 1347 388 1769 388 
Q 2188 388 2466 706 
Q 2744 1025 2744 1678 
Q 2744 2294 2464 2611 
Q 2184 2928 1769 2928 
Q 1347 2928 1069 2612 
Q 791 2297 791 1659 
z
" transform="scale(0.015625)"/>
       <path id="ArialMT-62" d="M 941 0 
L 419 0 
L 419 4581 
L 981 4581 
L 981 2947 
Q 1338 3394 1891 3394 
Q 2197 3394 2470 3270 
Q 2744 3147 2920 2923 
Q 3097 2700 3197 2384 
Q 3297 2069 3297 1709 
Q 3297 856 2875 390 
Q 2453 -75 1863 -75 
Q 1275 -75 941 416 
L 941 0 
z
M 934 1684 
Q 934 1088 1097 822 
Q 1363 388 1816 388 
Q 2184 388 2453 708 
Q 2722 1028 2722 1663 
Q 2722 2313 2464 2622 
Q 2206 2931 1841 2931 
Q 1472 2931 1203 2611 
Q 934 2291 934 1684 
z
" transform="scale(0.015625)"/>
      </defs>
      <use xlink:href="#ArialMT-4d"/>
      <use xlink:href="#ArialMT-65" x="83.300781"/>
      <use xlink:href="#ArialMT-61" x="138.916016"/>
      <use xlink:href="#ArialMT-6e" x="194.53125"/>
      <use xlink:href="#ArialMT-20" x="250.146484"/>
      <use xlink:href="#ArialMT-50" x="277.929688"/>
      <use xlink:href="#ArialMT-72" x="344.628906"/>
      <use xlink:href="#ArialMT-6f" x="377.929688"/>
      <use xlink:href="#ArialMT-62" x="433.544922"/>
      <use xlink:href="#ArialMT-2e" x="489.160156"/>
     </g>
    </g>
   </g>
   <g id="patch_7">
    <path d="M 52.646875 66.455625 
L 52.646875 21.935625 
" style="fill: none; stroke: #000000; stroke-width: 0.8; stroke-linejoin: miter; stroke-linecap: square"/>
   </g>
   <g id="patch_8">
    <path d="M 52.646875 66.455625 
L 82.326875 66.455625 
" style="fill: none; stroke: #000000; stroke-width: 0.8; stroke-linejoin: miter; stroke-linecap: square"/>
   </g>
   <g id="text_4">
    <!-- Crawl -->
    <g transform="translate(52.153125 15.935625) scale(0.12 -0.12)">
     <defs>
      <path id="ArialMT-43" d="M 3763 1606 
L 4369 1453 
Q 4178 706 3683 314 
Q 3188 -78 2472 -78 
Q 1731 -78 1267 223 
Q 803 525 561 1097 
Q 319 1669 319 2325 
Q 319 3041 592 3573 
Q 866 4106 1370 4382 
Q 1875 4659 2481 4659 
Q 3169 4659 3637 4309 
Q 4106 3959 4291 3325 
L 3694 3184 
Q 3534 3684 3231 3912 
Q 2928 4141 2469 4141 
Q 1941 4141 1586 3887 
Q 1231 3634 1087 3207 
Q 944 2781 944 2328 
Q 944 1744 1114 1308 
Q 1284 872 1643 656 
Q 2003 441 2422 441 
Q 2931 441 3284 734 
Q 3638 1028 3763 1606 
z
" transform="scale(0.015625)"/>
      <path id="ArialMT-77" d="M 1034 0 
L 19 3319 
L 600 3319 
L 1128 1403 
L 1325 691 
Q 1338 744 1497 1375 
L 2025 3319 
L 2603 3319 
L 3100 1394 
L 3266 759 
L 3456 1400 
L 4025 3319 
L 4572 3319 
L 3534 0 
L 2950 0 
L 2422 1988 
L 2294 2553 
L 1622 0 
L 1034 0 
z
" transform="scale(0.015625)"/>
      <path id="ArialMT-6c" d="M 409 0 
L 409 4581 
L 972 4581 
L 972 0 
L 409 0 
z
" transform="scale(0.015625)"/>
     </defs>
     <use xlink:href="#ArialMT-43"/>
     <use xlink:href="#ArialMT-72" x="72.216797"/>
     <use xlink:href="#ArialMT-61" x="105.517578"/>
     <use xlink:href="#ArialMT-77" x="161.132812"/>
     <use xlink:href="#ArialMT-6c" x="233.349609"/>
    </g>
   </g>
  </g>
  <g id="axes_2">
   <g id="patch_9">
    <path d="M 149.293489 66.455625 
L 178.973489 66.455625 
L 178.973489 21.935625 
L 149.293489 21.935625 
z
" style="fill: #ffffff"/>
   </g>
   <g id="patch_10">
    <path d="M 150.64258 28.306547 
L 156.322963 28.306547 
L 156.322963 52.082662 
L 150.64258 52.082662 
z
" clip-path="url(#p9b1ba4f5fb)" style="fill: #333333"/>
   </g>
   <g id="patch_11">
    <path d="M 157.743059 28.306547 
L 163.423442 28.306547 
L 163.423442 64.431989 
L 157.743059 64.431989 
z
" clip-path="url(#p9b1ba4f5fb)" style="fill: #888888"/>
   </g>
   <g id="patch_12">
    <path d="M 164.843537 28.306547 
L 170.52392 28.306547 
L 170.52392 23.959261 
L 164.843537 23.959261 
z
" clip-path="url(#p9b1ba4f5fb)" style="fill: #1100ff"/>
   </g>
   <g id="patch_13">
    <path d="M 171.944016 28.306547 
L 177.624399 28.306547 
L 177.624399 32.905236 
L 171.944016 32.905236 
z
" clip-path="url(#p9b1ba4f5fb)" style="fill: #858dff"/>
   </g>
   <g id="matplotlib.axis_3">
    <g id="xtick_3"/>
    <g id="xtick_4"/>
   </g>
   <g id="matplotlib.axis_4">
    <g id="ytick_3">
     <g id="line2d_3">
      <g>
       <use xlink:href="#m82553ebae9" x="149.293489" y="61.86164" style="stroke: #000000; stroke-width: 0.8"/>
      </g>
     </g>
     <g id="text_5">
      <!-- −0.1 -->
      <g transform="translate(122.552864 65.440546) scale(0.1 -0.1)">
       <defs>
        <path id="ArialMT-31" d="M 2384 0 
L 1822 0 
L 1822 3584 
Q 1619 3391 1289 3197 
Q 959 3003 697 2906 
L 697 3450 
Q 1169 3672 1522 3987 
Q 1875 4303 2022 4600 
L 2384 4600 
L 2384 0 
z
" transform="scale(0.015625)"/>
       </defs>
       <use xlink:href="#ArialMT-2212"/>
       <use xlink:href="#ArialMT-30" x="58.398438"/>
       <use xlink:href="#ArialMT-2e" x="114.013672"/>
       <use xlink:href="#ArialMT-31" x="141.796875"/>
      </g>
     </g>
    </g>
    <g id="ytick_4">
     <g id="line2d_4">
      <g>
       <use xlink:href="#m82553ebae9" x="149.293489" y="28.306547" style="stroke: #000000; stroke-width: 0.8"/>
      </g>
     </g>
     <g id="text_6">
      <!-- 0.0 -->
      <g transform="translate(128.393489 31.885453) scale(0.1 -0.1)">
       <use xlink:href="#ArialMT-30"/>
       <use xlink:href="#ArialMT-2e" x="55.615234"/>
       <use xlink:href="#ArialMT-30" x="83.398438"/>
      </g>
     </g>
    </g>
    <g id="text_7">
     <!-- Mean Prob. -->
     <g transform="translate(116.565364 70.040937) rotate(-90) scale(0.1 -0.1)">
      <use xlink:href="#ArialMT-4d"/>
      <use xlink:href="#ArialMT-65" x="83.300781"/>
      <use xlink:href="#ArialMT-61" x="138.916016"/>
      <use xlink:href="#ArialMT-6e" x="194.53125"/>
      <use xlink:href="#ArialMT-20" x="250.146484"/>
      <use xlink:href="#ArialMT-50" x="277.929688"/>
      <use xlink:href="#ArialMT-72" x="344.628906"/>
      <use xlink:href="#ArialMT-6f" x="377.929688"/>
      <use xlink:href="#ArialMT-62" x="433.544922"/>
      <use xlink:href="#ArialMT-2e" x="489.160156"/>
     </g>
    </g>
   </g>
   <g id="patch_14">
    <path d="M 149.293489 66.455625 
L 149.293489 21.935625 
" style="fill: none; stroke: #000000; stroke-width: 0.8; stroke-linejoin: miter; stroke-linecap: square"/>
   </g>
   <g id="patch_15">
    <path d="M 149.293489 66.455625 
L 178.973489 66.455625 
" style="fill: none; stroke: #000000; stroke-width: 0.8; stroke-linejoin: miter; stroke-linecap: square"/>
   </g>
   <g id="text_8">
    <!-- Bend -->
    <g transform="translate(150.121614 15.935625) scale(0.12 -0.12)">
     <defs>
      <path id="ArialMT-42" d="M 469 0 
L 469 4581 
L 2188 4581 
Q 2713 4581 3030 4442 
Q 3347 4303 3526 4014 
Q 3706 3725 3706 3409 
Q 3706 3116 3547 2856 
Q 3388 2597 3066 2438 
Q 3481 2316 3704 2022 
Q 3928 1728 3928 1328 
Q 3928 1006 3792 729 
Q 3656 453 3456 303 
Q 3256 153 2954 76 
Q 2653 0 2216 0 
L 469 0 
z
M 1075 2656 
L 2066 2656 
Q 2469 2656 2644 2709 
Q 2875 2778 2992 2937 
Q 3109 3097 3109 3338 
Q 3109 3566 3000 3739 
Q 2891 3913 2687 3977 
Q 2484 4041 1991 4041 
L 1075 4041 
L 1075 2656 
z
M 1075 541 
L 2216 541 
Q 2509 541 2628 563 
Q 2838 600 2978 687 
Q 3119 775 3209 942 
Q 3300 1109 3300 1328 
Q 3300 1584 3169 1773 
Q 3038 1963 2805 2039 
Q 2572 2116 2134 2116 
L 1075 2116 
L 1075 541 
z
" transform="scale(0.015625)"/>
      <path id="ArialMT-64" d="M 2575 0 
L 2575 419 
Q 2259 -75 1647 -75 
Q 1250 -75 917 144 
Q 584 363 401 755 
Q 219 1147 219 1656 
Q 219 2153 384 2558 
Q 550 2963 881 3178 
Q 1213 3394 1622 3394 
Q 1922 3394 2156 3267 
Q 2391 3141 2538 2938 
L 2538 4581 
L 3097 4581 
L 3097 0 
L 2575 0 
z
M 797 1656 
Q 797 1019 1065 703 
Q 1334 388 1700 388 
Q 2069 388 2326 689 
Q 2584 991 2584 1609 
Q 2584 2291 2321 2609 
Q 2059 2928 1675 2928 
Q 1300 2928 1048 2622 
Q 797 2316 797 1656 
z
" transform="scale(0.015625)"/>
     </defs>
     <use xlink:href="#ArialMT-42"/>
     <use xlink:href="#ArialMT-65" x="66.699219"/>
     <use xlink:href="#ArialMT-6e" x="122.314453"/>
     <use xlink:href="#ArialMT-64" x="177.929688"/>
    </g>
   </g>
  </g>
  <g id="axes_3">
   <g id="patch_16">
    <path d="M 245.940104 66.455625 
L 275.620104 66.455625 
L 275.620104 21.935625 
L 245.940104 21.935625 
z
" style="fill: #ffffff"/>
   </g>
   <g id="patch_17">
    <path d="M 247.289195 66.455625 
L 252.969578 66.455625 
L 252.969578 28.562246 
L 247.289195 28.562246 
z
" clip-path="url(#p114bfded6a)" style="fill: #333333"/>
   </g>
   <g id="patch_18">
    <path d="M 254.389673 66.455625 
L 260.070056 66.455625 
L 260.070056 24.055625 
L 254.389673 24.055625 
z
" clip-path="url(#p114bfded6a)" style="fill: #888888"/>
   </g>
   <g id="patch_19">
    <path d="M 261.490152 66.455625 
L 267.170534 66.455625 
L 267.170534 42.538953 
L 261.490152 42.538953 
z
" clip-path="url(#p114bfded6a)" style="fill: #1100ff"/>
   </g>
   <g id="patch_20">
    <path d="M 268.59063 66.455625 
L 274.271013 66.455625 
L 274.271013 50.646917 
L 268.59063 50.646917 
z
" clip-path="url(#p114bfded6a)" style="fill: #858dff"/>
   </g>
   <g id="matplotlib.axis_5">
    <g id="xtick_5"/>
    <g id="xtick_6"/>
   </g>
   <g id="matplotlib.axis_6">
    <g id="ytick_5">
     <g id="line2d_5">
      <g>
       <use xlink:href="#m82553ebae9" x="245.940104" y="66.455625" style="stroke: #000000; stroke-width: 0.8"/>
      </g>
     </g>
     <g id="text_9">
      <!-- 0.00 -->
      <g transform="translate(219.479166 70.034531) scale(0.1 -0.1)">
       <use xlink:href="#ArialMT-30"/>
       <use xlink:href="#ArialMT-2e" x="55.615234"/>
       <use xlink:href="#ArialMT-30" x="83.398438"/>
       <use xlink:href="#ArialMT-30" x="139.013672"/>
      </g>
     </g>
    </g>
    <g id="ytick_6">
     <g id="line2d_6">
      <g>
       <use xlink:href="#m82553ebae9" x="245.940104" y="41.737571" style="stroke: #000000; stroke-width: 0.8"/>
      </g>
     </g>
     <g id="text_10">
      <!-- 0.05 -->
      <g transform="translate(219.479166 45.316477) scale(0.1 -0.1)">
       <use xlink:href="#ArialMT-30"/>
       <use xlink:href="#ArialMT-2e" x="55.615234"/>
       <use xlink:href="#ArialMT-30" x="83.398438"/>
       <use xlink:href="#ArialMT-35" x="139.013672"/>
      </g>
     </g>
    </g>
    <g id="text_11">
     <!-- Mean Prob. -->
     <g transform="translate(213.491666 70.040937) rotate(-90) scale(0.1 -0.1)">
      <use xlink:href="#ArialMT-4d"/>
      <use xlink:href="#ArialMT-65" x="83.300781"/>
      <use xlink:href="#ArialMT-61" x="138.916016"/>
      <use xlink:href="#ArialMT-6e" x="194.53125"/>
      <use xlink:href="#ArialMT-20" x="250.146484"/>
      <use xlink:href="#ArialMT-50" x="277.929688"/>
      <use xlink:href="#ArialMT-72" x="344.628906"/>
      <use xlink:href="#ArialMT-6f" x="377.929688"/>
      <use xlink:href="#ArialMT-62" x="433.544922"/>
      <use xlink:href="#ArialMT-2e" x="489.160156"/>
     </g>
    </g>
   </g>
   <g id="patch_21">
    <path d="M 245.940104 66.455625 
L 245.940104 21.935625 
" style="fill: none; stroke: #000000; stroke-width: 0.8; stroke-linejoin: miter; stroke-linecap: square"/>
   </g>
   <g id="patch_22">
    <path d="M 245.940104 66.455625 
L 275.620104 66.455625 
" style="fill: none; stroke: #000000; stroke-width: 0.8; stroke-linejoin: miter; stroke-linecap: square"/>
   </g>
   <g id="text_12">
    <!-- Stop -->
    <g transform="translate(248.437916 15.935625) scale(0.12 -0.12)">
     <defs>
      <path id="ArialMT-53" d="M 288 1472 
L 859 1522 
Q 900 1178 1048 958 
Q 1197 738 1509 602 
Q 1822 466 2213 466 
Q 2559 466 2825 569 
Q 3091 672 3220 851 
Q 3350 1031 3350 1244 
Q 3350 1459 3225 1620 
Q 3100 1781 2813 1891 
Q 2628 1963 1997 2114 
Q 1366 2266 1113 2400 
Q 784 2572 623 2826 
Q 463 3081 463 3397 
Q 463 3744 659 4045 
Q 856 4347 1234 4503 
Q 1613 4659 2075 4659 
Q 2584 4659 2973 4495 
Q 3363 4331 3572 4012 
Q 3781 3694 3797 3291 
L 3216 3247 
Q 3169 3681 2898 3903 
Q 2628 4125 2100 4125 
Q 1550 4125 1298 3923 
Q 1047 3722 1047 3438 
Q 1047 3191 1225 3031 
Q 1400 2872 2139 2705 
Q 2878 2538 3153 2413 
Q 3553 2228 3743 1945 
Q 3934 1663 3934 1294 
Q 3934 928 3725 604 
Q 3516 281 3123 101 
Q 2731 -78 2241 -78 
Q 1619 -78 1198 103 
Q 778 284 539 648 
Q 300 1013 288 1472 
z
" transform="scale(0.015625)"/>
      <path id="ArialMT-74" d="M 1650 503 
L 1731 6 
Q 1494 -44 1306 -44 
Q 1000 -44 831 53 
Q 663 150 594 308 
Q 525 466 525 972 
L 525 2881 
L 113 2881 
L 113 3319 
L 525 3319 
L 525 4141 
L 1084 4478 
L 1084 3319 
L 1650 3319 
L 1650 2881 
L 1084 2881 
L 1084 941 
Q 1084 700 1114 631 
Q 1144 563 1211 522 
Q 1278 481 1403 481 
Q 1497 481 1650 503 
z
" transform="scale(0.015625)"/>
      <path id="ArialMT-70" d="M 422 -1272 
L 422 3319 
L 934 3319 
L 934 2888 
Q 1116 3141 1344 3267 
Q 1572 3394 1897 3394 
Q 2322 3394 2647 3175 
Q 2972 2956 3137 2557 
Q 3303 2159 3303 1684 
Q 3303 1175 3120 767 
Q 2938 359 2589 142 
Q 2241 -75 1856 -75 
Q 1575 -75 1351 44 
Q 1128 163 984 344 
L 984 -1272 
L 422 -1272 
z
M 931 1641 
Q 931 1000 1190 694 
Q 1450 388 1819 388 
Q 2194 388 2461 705 
Q 2728 1022 2728 1688 
Q 2728 2322 2467 2637 
Q 2206 2953 1844 2953 
Q 1484 2953 1207 2617 
Q 931 2281 931 1641 
z
" transform="scale(0.015625)"/>
     </defs>
     <use xlink:href="#ArialMT-53"/>
     <use xlink:href="#ArialMT-74" x="66.699219"/>
     <use xlink:href="#ArialMT-6f" x="94.482422"/>
     <use xlink:href="#ArialMT-70" x="150.097656"/>
    </g>
   </g>
  </g>
  <g id="axes_4">
   <g id="patch_23">
    <path d="M 342.586718 66.455625 
L 372.266718 66.455625 
L 372.266718 21.935625 
L 342.586718 21.935625 
z
" style="fill: #ffffff"/>
   </g>
   <g id="patch_24">
    <path d="M 343.935809 66.455625 
L 349.616192 66.455625 
L 349.616192 24.055625 
L 343.935809 24.055625 
z
" clip-path="url(#p830b34b2cf)" style="fill: #333333"/>
   </g>
   <g id="patch_25">
    <path d="M 351.036288 66.455625 
L 356.71667 66.455625 
L 356.71667 25.842799 
L 351.036288 25.842799 
z
" clip-path="url(#p830b34b2cf)" style="fill: #888888"/>
   </g>
   <g id="patch_26">
    <path d="M 358.136766 66.455625 
L 363.817149 66.455625 
L 363.817149 35.759949 
L 358.136766 35.759949 
z
" clip-path="url(#p830b34b2cf)" style="fill: #1100ff"/>
   </g>
   <g id="patch_27">
    <path d="M 365.237245 66.455625 
L 370.917627 66.455625 
L 370.917627 38.687475 
L 365.237245 38.687475 
z
" clip-path="url(#p830b34b2cf)" style="fill: #858dff"/>
   </g>
   <g id="matplotlib.axis_7">
    <g id="xtick_7"/>
    <g id="xtick_8"/>
   </g>
   <g id="matplotlib.axis_8">
    <g id="ytick_7">
     <g id="line2d_7">
      <g>
       <use xlink:href="#m82553ebae9" x="342.586718" y="66.455625" style="stroke: #000000; stroke-width: 0.8"/>
      </g>
     </g>
     <g id="text_13">
      <!-- 0.00 -->
      <g transform="translate(316.125781 70.034531) scale(0.1 -0.1)">
       <use xlink:href="#ArialMT-30"/>
       <use xlink:href="#ArialMT-2e" x="55.615234"/>
       <use xlink:href="#ArialMT-30" x="83.398438"/>
       <use xlink:href="#ArialMT-30" x="139.013672"/>
      </g>
     </g>
    </g>
    <g id="ytick_8">
     <g id="line2d_8">
      <g>
       <use xlink:href="#m82553ebae9" x="342.586718" y="41.63863" style="stroke: #000000; stroke-width: 0.8"/>
      </g>
     </g>
     <g id="text_14">
      <!-- 0.02 -->
      <g transform="translate(316.125781 45.217536) scale(0.1 -0.1)">
       <use xlink:href="#ArialMT-30"/>
       <use xlink:href="#ArialMT-2e" x="55.615234"/>
       <use xlink:href="#ArialMT-30" x="83.398438"/>
       <use xlink:href="#ArialMT-32" x="139.013672"/>
      </g>
     </g>
    </g>
    <g id="text_15">
     <!-- Mean Prob. -->
     <g transform="translate(310.138281 70.040937) rotate(-90) scale(0.1 -0.1)">
      <use xlink:href="#ArialMT-4d"/>
      <use xlink:href="#ArialMT-65" x="83.300781"/>
      <use xlink:href="#ArialMT-61" x="138.916016"/>
      <use xlink:href="#ArialMT-6e" x="194.53125"/>
      <use xlink:href="#ArialMT-20" x="250.146484"/>
      <use xlink:href="#ArialMT-50" x="277.929688"/>
      <use xlink:href="#ArialMT-72" x="344.628906"/>
      <use xlink:href="#ArialMT-6f" x="377.929688"/>
      <use xlink:href="#ArialMT-62" x="433.544922"/>
      <use xlink:href="#ArialMT-2e" x="489.160156"/>
     </g>
    </g>
   </g>
   <g id="patch_28">
    <path d="M 342.586718 66.455625 
L 342.586718 21.935625 
" style="fill: none; stroke: #000000; stroke-width: 0.8; stroke-linejoin: miter; stroke-linecap: square"/>
   </g>
   <g id="patch_29">
    <path d="M 342.586718 66.455625 
L 372.266718 66.455625 
" style="fill: none; stroke: #000000; stroke-width: 0.8; stroke-linejoin: miter; stroke-linecap: square"/>
   </g>
   <g id="text_16">
    <!-- Hunch -->
    <g transform="translate(340.083906 15.935625) scale(0.12 -0.12)">
     <defs>
      <path id="ArialMT-48" d="M 513 0 
L 513 4581 
L 1119 4581 
L 1119 2700 
L 3500 2700 
L 3500 4581 
L 4106 4581 
L 4106 0 
L 3500 0 
L 3500 2159 
L 1119 2159 
L 1119 0 
L 513 0 
z
" transform="scale(0.015625)"/>
      <path id="ArialMT-75" d="M 2597 0 
L 2597 488 
Q 2209 -75 1544 -75 
Q 1250 -75 995 37 
Q 741 150 617 320 
Q 494 491 444 738 
Q 409 903 409 1263 
L 409 3319 
L 972 3319 
L 972 1478 
Q 972 1038 1006 884 
Q 1059 663 1231 536 
Q 1403 409 1656 409 
Q 1909 409 2131 539 
Q 2353 669 2445 892 
Q 2538 1116 2538 1541 
L 2538 3319 
L 3100 3319 
L 3100 0 
L 2597 0 
z
" transform="scale(0.015625)"/>
      <path id="ArialMT-63" d="M 2588 1216 
L 3141 1144 
Q 3050 572 2676 248 
Q 2303 -75 1759 -75 
Q 1078 -75 664 370 
Q 250 816 250 1647 
Q 250 2184 428 2587 
Q 606 2991 970 3192 
Q 1334 3394 1763 3394 
Q 2303 3394 2647 3120 
Q 2991 2847 3088 2344 
L 2541 2259 
Q 2463 2594 2264 2762 
Q 2066 2931 1784 2931 
Q 1359 2931 1093 2626 
Q 828 2322 828 1663 
Q 828 994 1084 691 
Q 1341 388 1753 388 
Q 2084 388 2306 591 
Q 2528 794 2588 1216 
z
" transform="scale(0.015625)"/>
      <path id="ArialMT-68" d="M 422 0 
L 422 4581 
L 984 4581 
L 984 2938 
Q 1378 3394 1978 3394 
Q 2347 3394 2619 3248 
Q 2891 3103 3008 2847 
Q 3125 2591 3125 2103 
L 3125 0 
L 2563 0 
L 2563 2103 
Q 2563 2525 2380 2717 
Q 2197 2909 1863 2909 
Q 1613 2909 1392 2779 
Q 1172 2650 1078 2428 
Q 984 2206 984 1816 
L 984 0 
L 422 0 
z
" transform="scale(0.015625)"/>
     </defs>
     <use xlink:href="#ArialMT-48"/>
     <use xlink:href="#ArialMT-75" x="72.216797"/>
     <use xlink:href="#ArialMT-6e" x="127.832031"/>
     <use xlink:href="#ArialMT-63" x="183.447266"/>
     <use xlink:href="#ArialMT-68" x="233.447266"/>
    </g>
   </g>
  </g>
  <g id="axes_5">
   <g id="patch_30">
    <path d="M 439.233333 66.455625 
L 468.913333 66.455625 
L 468.913333 21.935625 
L 439.233333 21.935625 
z
" style="fill: #ffffff"/>
   </g>
   <g id="patch_31">
    <path d="M 440.582424 66.455625 
L 446.262806 66.455625 
L 446.262806 29.127391 
L 440.582424 29.127391 
z
" clip-path="url(#p6ad91bf31a)" style="fill: #333333"/>
   </g>
   <g id="patch_32">
    <path d="M 447.682902 66.455625 
L 453.363285 66.455625 
L 453.363285 24.055625 
L 447.682902 24.055625 
z
" clip-path="url(#p6ad91bf31a)" style="fill: #888888"/>
   </g>
   <g id="patch_33">
    <path d="M 454.783381 66.455625 
L 460.463763 66.455625 
L 460.463763 33.560265 
L 454.783381 33.560265 
z
" clip-path="url(#p6ad91bf31a)" style="fill: #1100ff"/>
   </g>
   <g id="patch_34">
    <path d="M 461.883859 66.455625 
L 467.564242 66.455625 
L 467.564242 26.734826 
L 461.883859 26.734826 
z
" clip-path="url(#p6ad91bf31a)" style="fill: #858dff"/>
   </g>
   <g id="matplotlib.axis_9">
    <g id="xtick_9"/>
    <g id="xtick_10"/>
   </g>
   <g id="matplotlib.axis_10">
    <g id="ytick_9">
     <g id="line2d_9">
      <g>
       <use xlink:href="#m82553ebae9" x="439.233333" y="66.455625" style="stroke: #000000; stroke-width: 0.8"/>
      </g>
     </g>
     <g id="text_17">
      <!-- 0.0 -->
      <g transform="translate(418.333333 70.034531) scale(0.1 -0.1)">
       <use xlink:href="#ArialMT-30"/>
       <use xlink:href="#ArialMT-2e" x="55.615234"/>
       <use xlink:href="#ArialMT-30" x="83.398438"/>
      </g>
     </g>
    </g>
    <g id="ytick_10">
     <g id="line2d_10">
      <g>
       <use xlink:href="#m82553ebae9" x="439.233333" y="24.897233" style="stroke: #000000; stroke-width: 0.8"/>
      </g>
     </g>
     <g id="text_18">
      <!-- 0.2 -->
      <g transform="translate(418.333333 28.47614) scale(0.1 -0.1)">
       <use xlink:href="#ArialMT-30"/>
       <use xlink:href="#ArialMT-2e" x="55.615234"/>
       <use xlink:href="#ArialMT-32" x="83.398438"/>
      </g>
     </g>
    </g>
    <g id="text_19">
     <!-- Mean Prob. -->
     <g transform="translate(412.345833 70.040937) rotate(-90) scale(0.1 -0.1)">
      <use xlink:href="#ArialMT-4d"/>
      <use xlink:href="#ArialMT-65" x="83.300781"/>
      <use xlink:href="#ArialMT-61" x="138.916016"/>
      <use xlink:href="#ArialMT-6e" x="194.53125"/>
      <use xlink:href="#ArialMT-20" x="250.146484"/>
      <use xlink:href="#ArialMT-50" x="277.929688"/>
      <use xlink:href="#ArialMT-72" x="344.628906"/>
      <use xlink:href="#ArialMT-6f" x="377.929688"/>
      <use xlink:href="#ArialMT-62" x="433.544922"/>
      <use xlink:href="#ArialMT-2e" x="489.160156"/>
     </g>
    </g>
   </g>
   <g id="patch_35">
    <path d="M 439.233333 66.455625 
L 439.233333 21.935625 
" style="fill: none; stroke: #000000; stroke-width: 0.8; stroke-linejoin: miter; stroke-linecap: square"/>
   </g>
   <g id="patch_36">
    <path d="M 439.233333 66.455625 
L 468.913333 66.455625 
" style="fill: none; stroke: #000000; stroke-width: 0.8; stroke-linejoin: miter; stroke-linecap: square"/>
   </g>
   <g id="text_20">
    <!-- Backup -->
    <g transform="translate(434.061458 15.935625) scale(0.12 -0.12)">
     <defs>
      <path id="ArialMT-6b" d="M 425 0 
L 425 4581 
L 988 4581 
L 988 1969 
L 2319 3319 
L 3047 3319 
L 1778 2088 
L 3175 0 
L 2481 0 
L 1384 1697 
L 988 1316 
L 988 0 
L 425 0 
z
" transform="scale(0.015625)"/>
     </defs>
     <use xlink:href="#ArialMT-42"/>
     <use xlink:href="#ArialMT-61" x="66.699219"/>
     <use xlink:href="#ArialMT-63" x="122.314453"/>
     <use xlink:href="#ArialMT-6b" x="172.314453"/>
     <use xlink:href="#ArialMT-75" x="222.314453"/>
     <use xlink:href="#ArialMT-70" x="277.929688"/>
    </g>
   </g>
  </g>
  <g id="axes_6">
   <g id="patch_37">
    <path d="M 535.879947 66.455625 
L 565.559947 66.455625 
L 565.559947 21.935625 
L 535.879947 21.935625 
z
" style="fill: #ffffff"/>
   </g>
   <g id="patch_38">
    <path d="M 537.229038 44.195625 
L 542.909421 44.195625 
L 542.909421 44.195625 
L 537.229038 44.195625 
z
" clip-path="url(#pad4a0811a1)" style="fill: #333333"/>
   </g>
   <g id="patch_39">
    <path d="M 544.329516 44.195625 
L 550.009899 44.195625 
L 550.009899 44.195625 
L 544.329516 44.195625 
z
" clip-path="url(#pad4a0811a1)" style="fill: #888888"/>
   </g>
   <g id="patch_40">
    <path d="M 551.429995 44.195625 
L 557.110378 44.195625 
L 557.110378 44.195625 
L 551.429995 44.195625 
z
" clip-path="url(#pad4a0811a1)" style="fill: #1100ff"/>
   </g>
   <g id="patch_41">
    <path d="M 558.530473 44.195625 
L 564.210856 44.195625 
L 564.210856 44.195625 
L 558.530473 44.195625 
z
" clip-path="url(#pad4a0811a1)" style="fill: #858dff"/>
   </g>
   <g id="matplotlib.axis_11">
    <g id="xtick_11"/>
    <g id="xtick_12"/>
   </g>
   <g id="matplotlib.axis_12">
    <g id="ytick_11">
     <g id="line2d_11">
      <g>
       <use xlink:href="#m82553ebae9" x="535.879947" y="64.431989" style="stroke: #000000; stroke-width: 0.8"/>
      </g>
     </g>
     <g id="text_21">
      <!-- −0.05 -->
      <g transform="translate(503.578385 68.010895) scale(0.1 -0.1)">
       <use xlink:href="#ArialMT-2212"/>
       <use xlink:href="#ArialMT-30" x="58.398438"/>
       <use xlink:href="#ArialMT-2e" x="114.013672"/>
       <use xlink:href="#ArialMT-30" x="141.796875"/>
       <use xlink:href="#ArialMT-35" x="197.412109"/>
      </g>
     </g>
    </g>
    <g id="ytick_12">
     <g id="line2d_12">
      <g>
       <use xlink:href="#m82553ebae9" x="535.879947" y="44.195625" style="stroke: #000000; stroke-width: 0.8"/>
      </g>
     </g>
     <g id="text_22">
      <!-- 0.00 -->
      <g transform="translate(509.41901 47.774531) scale(0.1 -0.1)">
       <use xlink:href="#ArialMT-30"/>
       <use xlink:href="#ArialMT-2e" x="55.615234"/>
       <use xlink:href="#ArialMT-30" x="83.398438"/>
       <use xlink:href="#ArialMT-30" x="139.013672"/>
      </g>
     </g>
    </g>
    <g id="ytick_13">
     <g id="line2d_13">
      <g>
       <use xlink:href="#m82553ebae9" x="535.879947" y="23.959261" style="stroke: #000000; stroke-width: 0.8"/>
      </g>
     </g>
     <g id="text_23">
      <!-- 0.05 -->
      <g transform="translate(509.41901 27.538168) scale(0.1 -0.1)">
       <use xlink:href="#ArialMT-30"/>
       <use xlink:href="#ArialMT-2e" x="55.615234"/>
       <use xlink:href="#ArialMT-30" x="83.398438"/>
       <use xlink:href="#ArialMT-35" x="139.013672"/>
      </g>
     </g>
    </g>
    <g id="text_24">
     <!-- Mean Prob. -->
     <g transform="translate(497.590885 70.040937) rotate(-90) scale(0.1 -0.1)">
      <use xlink:href="#ArialMT-4d"/>
      <use xlink:href="#ArialMT-65" x="83.300781"/>
      <use xlink:href="#ArialMT-61" x="138.916016"/>
      <use xlink:href="#ArialMT-6e" x="194.53125"/>
      <use xlink:href="#ArialMT-20" x="250.146484"/>
      <use xlink:href="#ArialMT-50" x="277.929688"/>
      <use xlink:href="#ArialMT-72" x="344.628906"/>
      <use xlink:href="#ArialMT-6f" x="377.929688"/>
      <use xlink:href="#ArialMT-62" x="433.544922"/>
      <use xlink:href="#ArialMT-2e" x="489.160156"/>
     </g>
    </g>
   </g>
   <g id="patch_42">
    <path d="M 535.879947 66.455625 
L 535.879947 21.935625 
" style="fill: none; stroke: #000000; stroke-width: 0.8; stroke-linejoin: miter; stroke-linecap: square"/>
   </g>
   <g id="patch_43">
    <path d="M 535.879947 66.455625 
L 565.559947 66.455625 
" style="fill: none; stroke: #000000; stroke-width: 0.8; stroke-linejoin: miter; stroke-linecap: square"/>
   </g>
   <g id="text_25">
    <!-- NA -->
    <g transform="translate(542.384635 15.935625) scale(0.12 -0.12)">
     <defs>
      <path id="ArialMT-4e" d="M 488 0 
L 488 4581 
L 1109 4581 
L 3516 984 
L 3516 4581 
L 4097 4581 
L 4097 0 
L 3475 0 
L 1069 3600 
L 1069 0 
L 488 0 
z
" transform="scale(0.015625)"/>
      <path id="ArialMT-41" d="M -9 0 
L 1750 4581 
L 2403 4581 
L 4278 0 
L 3588 0 
L 3053 1388 
L 1138 1388 
L 634 0 
L -9 0 
z
M 1313 1881 
L 2866 1881 
L 2388 3150 
Q 2169 3728 2063 4100 
Q 1975 3659 1816 3225 
L 1313 1881 
z
" transform="scale(0.015625)"/>
     </defs>
     <use xlink:href="#ArialMT-4e"/>
     <use xlink:href="#ArialMT-41" x="72.216797"/>
    </g>
   </g>
  </g>
  <g id="axes_7">
   <g id="patch_44">
    <path d="M 632.526562 66.455625 
L 662.206562 66.455625 
L 662.206562 21.935625 
L 632.526562 21.935625 
z
" style="fill: #ffffff"/>
   </g>
   <g id="patch_45">
    <path d="M 633.875652 54.02586 
L 639.556035 54.02586 
L 639.556035 23.959261 
L 633.875652 23.959261 
z
" clip-path="url(#p8dbf2f6529)" style="fill: #333333"/>
   </g>
   <g id="patch_46">
    <path d="M 640.976131 54.02586 
L 646.656514 54.02586 
L 646.656514 34.492208 
L 640.976131 34.492208 
z
" clip-path="url(#p8dbf2f6529)" style="fill: #888888"/>
   </g>
   <g id="patch_47">
    <path d="M 648.076609 54.02586 
L 653.756992 54.02586 
L 653.756992 64.431989 
L 648.076609 64.431989 
z
" clip-path="url(#p8dbf2f6529)" style="fill: #1100ff"/>
   </g>
   <g id="patch_48">
    <path d="M 655.177088 54.02586 
L 660.857471 54.02586 
L 660.857471 45.138922 
L 655.177088 45.138922 
z
" clip-path="url(#p8dbf2f6529)" style="fill: #858dff"/>
   </g>
   <g id="matplotlib.axis_13">
    <g id="xtick_13"/>
    <g id="xtick_14"/>
   </g>
   <g id="matplotlib.axis_14">
    <g id="ytick_14">
     <g id="line2d_14">
      <g>
       <use xlink:href="#m82553ebae9" x="632.526562" y="54.02586" style="stroke: #000000; stroke-width: 0.8"/>
      </g>
     </g>
     <g id="text_26">
      <!-- 0.00 -->
      <g transform="translate(606.065624 57.604766) scale(0.1 -0.1)">
       <use xlink:href="#ArialMT-30"/>
       <use xlink:href="#ArialMT-2e" x="55.615234"/>
       <use xlink:href="#ArialMT-30" x="83.398438"/>
       <use xlink:href="#ArialMT-30" x="139.013672"/>
      </g>
     </g>
    </g>
    <g id="ytick_15">
     <g id="line2d_15">
      <g>
       <use xlink:href="#m82553ebae9" x="632.526562" y="28.768546" style="stroke: #000000; stroke-width: 0.8"/>
      </g>
     </g>
     <g id="text_27">
      <!-- 0.02 -->
      <g transform="translate(606.065624 32.347452) scale(0.1 -0.1)">
       <use xlink:href="#ArialMT-30"/>
       <use xlink:href="#ArialMT-2e" x="55.615234"/>
       <use xlink:href="#ArialMT-30" x="83.398438"/>
       <use xlink:href="#ArialMT-32" x="139.013672"/>
      </g>
     </g>
    </g>
    <g id="text_28">
     <!-- Mean Prob. -->
     <g transform="translate(600.078124 70.040937) rotate(-90) scale(0.1 -0.1)">
      <use xlink:href="#ArialMT-4d"/>
      <use xlink:href="#ArialMT-65" x="83.300781"/>
      <use xlink:href="#ArialMT-61" x="138.916016"/>
      <use xlink:href="#ArialMT-6e" x="194.53125"/>
      <use xlink:href="#ArialMT-20" x="250.146484"/>
      <use xlink:href="#ArialMT-50" x="277.929688"/>
      <use xlink:href="#ArialMT-72" x="344.628906"/>
      <use xlink:href="#ArialMT-6f" x="377.929688"/>
      <use xlink:href="#ArialMT-62" x="433.544922"/>
      <use xlink:href="#ArialMT-2e" x="489.160156"/>
     </g>
    </g>
   </g>
   <g id="patch_49">
    <path d="M 632.526562 66.455625 
L 632.526562 21.935625 
" style="fill: none; stroke: #000000; stroke-width: 0.8; stroke-linejoin: miter; stroke-linecap: square"/>
   </g>
   <g id="patch_50">
    <path d="M 632.526562 66.455625 
L 662.206562 66.455625 
" style="fill: none; stroke: #000000; stroke-width: 0.8; stroke-linejoin: miter; stroke-linecap: square"/>
   </g>
   <g id="text_29">
    <!-- Small Action -->
    <g transform="translate(614.351562 15.935625) scale(0.12 -0.12)">
     <defs>
      <path id="ArialMT-6d" d="M 422 0 
L 422 3319 
L 925 3319 
L 925 2853 
Q 1081 3097 1340 3245 
Q 1600 3394 1931 3394 
Q 2300 3394 2536 3241 
Q 2772 3088 2869 2813 
Q 3263 3394 3894 3394 
Q 4388 3394 4653 3120 
Q 4919 2847 4919 2278 
L 4919 0 
L 4359 0 
L 4359 2091 
Q 4359 2428 4304 2576 
Q 4250 2725 4106 2815 
Q 3963 2906 3769 2906 
Q 3419 2906 3187 2673 
Q 2956 2441 2956 1928 
L 2956 0 
L 2394 0 
L 2394 2156 
Q 2394 2531 2256 2718 
Q 2119 2906 1806 2906 
Q 1569 2906 1367 2781 
Q 1166 2656 1075 2415 
Q 984 2175 984 1722 
L 984 0 
L 422 0 
z
" transform="scale(0.015625)"/>
      <path id="ArialMT-69" d="M 425 3934 
L 425 4581 
L 988 4581 
L 988 3934 
L 425 3934 
z
M 425 0 
L 425 3319 
L 988 3319 
L 988 0 
L 425 0 
z
" transform="scale(0.015625)"/>
     </defs>
     <use xlink:href="#ArialMT-53"/>
     <use xlink:href="#ArialMT-6d" x="66.699219"/>
     <use xlink:href="#ArialMT-61" x="150"/>
     <use xlink:href="#ArialMT-6c" x="205.615234"/>
     <use xlink:href="#ArialMT-6c" x="227.832031"/>
     <use xlink:href="#ArialMT-20" x="250.048828"/>
     <use xlink:href="#ArialMT-41" x="272.332031"/>
     <use xlink:href="#ArialMT-63" x="339.03125"/>
     <use xlink:href="#ArialMT-74" x="389.03125"/>
     <use xlink:href="#ArialMT-69" x="416.814453"/>
     <use xlink:href="#ArialMT-6f" x="439.03125"/>
     <use xlink:href="#ArialMT-6e" x="494.646484"/>
    </g>
   </g>
  </g>
 </g>
 <defs>
  <clipPath id="p72db01adce">
   <rect x="52.646875" y="21.935625" width="29.68" height="44.52"/>
  </clipPath>
  <clipPath id="p9b1ba4f5fb">
   <rect x="149.293489" y="21.935625" width="29.68" height="44.52"/>
  </clipPath>
  <clipPath id="p114bfded6a">
   <rect x="245.940104" y="21.935625" width="29.68" height="44.52"/>
  </clipPath>
  <clipPath id="p830b34b2cf">
   <rect x="342.586718" y="21.935625" width="29.68" height="44.52"/>
  </clipPath>
  <clipPath id="p6ad91bf31a">
   <rect x="439.233333" y="21.935625" width="29.68" height="44.52"/>
  </clipPath>
  <clipPath id="pad4a0811a1">
   <rect x="535.879947" y="21.935625" width="29.68" height="44.52"/>
  </clipPath>
  <clipPath id="p8dbf2f6529">
   <rect x="632.526562" y="21.935625" width="29.68" height="44.52"/>
  </clipPath>
 </defs>
</svg>
