<?xml version="1.0" encoding="utf-8" standalone="no"?>
<!DOCTYPE svg PUBLIC "-//W3C//DTD SVG 1.1//EN"
  "http://www.w3.org/Graphics/SVG/1.1/DTD/svg11.dtd">
<svg xmlns:xlink="http://www.w3.org/1999/xlink" width="98.930304pt" height="99.158622pt" viewBox="0 0 98.930304 99.158622" xmlns="http://www.w3.org/2000/svg" version="1.1">
 <metadata>
  <rdf:RDF xmlns:dc="http://purl.org/dc/elements/1.1/" xmlns:cc="http://creativecommons.org/ns#" xmlns:rdf="http://www.w3.org/1999/02/22-rdf-syntax-ns#">
   <cc:Work>
    <dc:type rdf:resource="http://purl.org/dc/dcmitype/StillImage"/>
    <dc:date>2024-01-15T12:12:02.168454</dc:date>
    <dc:format>image/svg+xml</dc:format>
    <dc:creator>
     <cc:Agent>
      <dc:title>Matplotlib v3.8.2, https://matplotlib.org/</dc:title>
     </cc:Agent>
    </dc:creator>
   </cc:Work>
  </rdf:RDF>
 </metadata>
 <defs>
  <style type="text/css">*{stroke-linejoin: round; stroke-linecap: butt}</style>
 </defs>
 <g id="figure_1">
  <g id="patch_1">
   <path d="M 0 99.158622 
L 98.930304 99.158622 
L 98.930304 0 
L 0 0 
L 0 99.158622 
z
" style="fill: none"/>
  </g>
  <g id="axes_1">
   <g id="patch_2">
    <path d="M 32.90625 62.667997 
L 87.26625 62.667997 
L 87.26625 8.307997 
L 32.90625 8.307997 
z
" style="fill: #ffffff"/>
   </g>
   <g id="matplotlib.axis_1">
    <g id="xtick_1">
     <g id="line2d_1">
      <defs>
       <path id="m14b28ac2ee" d="M 0 0 
L 0 3.5 
" style="stroke: #000000; stroke-width: 0.8"/>
      </defs>
      <g>
       <use xlink:href="#m14b28ac2ee" x="36.942854" y="62.667997" style="stroke: #000000; stroke-width: 0.8"/>
      </g>
     </g>
     <g id="text_1">
      <!-- 0.45 -->
      <g transform="translate(27.212385 76.82581) scale(0.1 -0.1)">
       <defs>
        <path id="ArialMT-30" d="M 266 2259 
Q 266 3072 433 3567 
Q 600 4063 929 4331 
Q 1259 4600 1759 4600 
Q 2128 4600 2406 4451 
Q 2684 4303 2865 4023 
Q 3047 3744 3150 3342 
Q 3253 2941 3253 2259 
Q 3253 1453 3087 958 
Q 2922 463 2592 192 
Q 2263 -78 1759 -78 
Q 1097 -78 719 397 
Q 266 969 266 2259 
z
M 844 2259 
Q 844 1131 1108 757 
Q 1372 384 1759 384 
Q 2147 384 2411 759 
Q 2675 1134 2675 2259 
Q 2675 3391 2411 3762 
Q 2147 4134 1753 4134 
Q 1366 4134 1134 3806 
Q 844 3388 844 2259 
z
" transform="scale(0.015625)"/>
        <path id="ArialMT-2e" d="M 581 0 
L 581 641 
L 1222 641 
L 1222 0 
L 581 0 
z
" transform="scale(0.015625)"/>
        <path id="ArialMT-34" d="M 2069 0 
L 2069 1097 
L 81 1097 
L 81 1613 
L 2172 4581 
L 2631 4581 
L 2631 1613 
L 3250 1613 
L 3250 1097 
L 2631 1097 
L 2631 0 
L 2069 0 
z
M 2069 1613 
L 2069 3678 
L 634 1613 
L 2069 1613 
z
" transform="scale(0.015625)"/>
        <path id="ArialMT-35" d="M 266 1200 
L 856 1250 
Q 922 819 1161 601 
Q 1400 384 1738 384 
Q 2144 384 2425 690 
Q 2706 997 2706 1503 
Q 2706 1984 2436 2262 
Q 2166 2541 1728 2541 
Q 1456 2541 1237 2417 
Q 1019 2294 894 2097 
L 366 2166 
L 809 4519 
L 3088 4519 
L 3088 3981 
L 1259 3981 
L 1013 2750 
Q 1425 3038 1878 3038 
Q 2478 3038 2890 2622 
Q 3303 2206 3303 1553 
Q 3303 931 2941 478 
Q 2500 -78 1738 -78 
Q 1113 -78 717 272 
Q 322 622 266 1200 
z
" transform="scale(0.015625)"/>
       </defs>
       <use xlink:href="#ArialMT-30"/>
       <use xlink:href="#ArialMT-2e" x="55.615234"/>
       <use xlink:href="#ArialMT-34" x="83.398438"/>
       <use xlink:href="#ArialMT-35" x="139.013672"/>
      </g>
     </g>
    </g>
    <g id="xtick_2">
     <g id="line2d_2">
      <g>
       <use xlink:href="#m14b28ac2ee" x="59.471344" y="62.667997" style="stroke: #000000; stroke-width: 0.8"/>
      </g>
     </g>
     <g id="text_2">
      <!-- 0.50 -->
      <g transform="translate(49.740875 76.82581) scale(0.1 -0.1)">
       <use xlink:href="#ArialMT-30"/>
       <use xlink:href="#ArialMT-2e" x="55.615234"/>
       <use xlink:href="#ArialMT-35" x="83.398438"/>
       <use xlink:href="#ArialMT-30" x="139.013672"/>
      </g>
     </g>
    </g>
    <g id="xtick_3">
     <g id="line2d_3">
      <g>
       <use xlink:href="#m14b28ac2ee" x="81.999835" y="62.667997" style="stroke: #000000; stroke-width: 0.8"/>
      </g>
     </g>
     <g id="text_3">
      <!-- 0.55 -->
      <g transform="translate(72.269366 76.82581) scale(0.1 -0.1)">
       <use xlink:href="#ArialMT-30"/>
       <use xlink:href="#ArialMT-2e" x="55.615234"/>
       <use xlink:href="#ArialMT-35" x="83.398438"/>
       <use xlink:href="#ArialMT-35" x="139.013672"/>
      </g>
     </g>
    </g>
    <g id="text_4">
     <!-- Bend Prob. 60-70s -->
     <g transform="translate(18.394844 89.971122) scale(0.1 -0.1)">
      <defs>
       <path id="ArialMT-42" d="M 469 0 
L 469 4581 
L 2188 4581 
Q 2713 4581 3030 4442 
Q 3347 4303 3526 4014 
Q 3706 3725 3706 3409 
Q 3706 3116 3547 2856 
Q 3388 2597 3066 2438 
Q 3481 2316 3704 2022 
Q 3928 1728 3928 1328 
Q 3928 1006 3792 729 
Q 3656 453 3456 303 
Q 3256 153 2954 76 
Q 2653 0 2216 0 
L 469 0 
z
M 1075 2656 
L 2066 2656 
Q 2469 2656 2644 2709 
Q 2875 2778 2992 2937 
Q 3109 3097 3109 3338 
Q 3109 3566 3000 3739 
Q 2891 3913 2687 3977 
Q 2484 4041 1991 4041 
L 1075 4041 
L 1075 2656 
z
M 1075 541 
L 2216 541 
Q 2509 541 2628 563 
Q 2838 600 2978 687 
Q 3119 775 3209 942 
Q 3300 1109 3300 1328 
Q 3300 1584 3169 1773 
Q 3038 1963 2805 2039 
Q 2572 2116 2134 2116 
L 1075 2116 
L 1075 541 
z
" transform="scale(0.015625)"/>
       <path id="ArialMT-65" d="M 2694 1069 
L 3275 997 
Q 3138 488 2766 206 
Q 2394 -75 1816 -75 
Q 1088 -75 661 373 
Q 234 822 234 1631 
Q 234 2469 665 2931 
Q 1097 3394 1784 3394 
Q 2450 3394 2872 2941 
Q 3294 2488 3294 1666 
Q 3294 1616 3291 1516 
L 816 1516 
Q 847 969 1125 678 
Q 1403 388 1819 388 
Q 2128 388 2347 550 
Q 2566 713 2694 1069 
z
M 847 1978 
L 2700 1978 
Q 2663 2397 2488 2606 
Q 2219 2931 1791 2931 
Q 1403 2931 1139 2672 
Q 875 2413 847 1978 
z
" transform="scale(0.015625)"/>
       <path id="ArialMT-6e" d="M 422 0 
L 422 3319 
L 928 3319 
L 928 2847 
Q 1294 3394 1984 3394 
Q 2284 3394 2536 3286 
Q 2788 3178 2913 3003 
Q 3038 2828 3088 2588 
Q 3119 2431 3119 2041 
L 3119 0 
L 2556 0 
L 2556 2019 
Q 2556 2363 2490 2533 
Q 2425 2703 2258 2804 
Q 2091 2906 1866 2906 
Q 1506 2906 1245 2678 
Q 984 2450 984 1813 
L 984 0 
L 422 0 
z
" transform="scale(0.015625)"/>
       <path id="ArialMT-64" d="M 2575 0 
L 2575 419 
Q 2259 -75 1647 -75 
Q 1250 -75 917 144 
Q 584 363 401 755 
Q 219 1147 219 1656 
Q 219 2153 384 2558 
Q 550 2963 881 3178 
Q 1213 3394 1622 3394 
Q 1922 3394 2156 3267 
Q 2391 3141 2538 2938 
L 2538 4581 
L 3097 4581 
L 3097 0 
L 2575 0 
z
M 797 1656 
Q 797 1019 1065 703 
Q 1334 388 1700 388 
Q 2069 388 2326 689 
Q 2584 991 2584 1609 
Q 2584 2291 2321 2609 
Q 2059 2928 1675 2928 
Q 1300 2928 1048 2622 
Q 797 2316 797 1656 
z
" transform="scale(0.015625)"/>
       <path id="ArialMT-20" transform="scale(0.015625)"/>
       <path id="ArialMT-50" d="M 494 0 
L 494 4581 
L 2222 4581 
Q 2678 4581 2919 4538 
Q 3256 4481 3484 4323 
Q 3713 4166 3852 3881 
Q 3991 3597 3991 3256 
Q 3991 2672 3619 2267 
Q 3247 1863 2275 1863 
L 1100 1863 
L 1100 0 
L 494 0 
z
M 1100 2403 
L 2284 2403 
Q 2872 2403 3119 2622 
Q 3366 2841 3366 3238 
Q 3366 3525 3220 3729 
Q 3075 3934 2838 4000 
Q 2684 4041 2272 4041 
L 1100 4041 
L 1100 2403 
z
" transform="scale(0.015625)"/>
       <path id="ArialMT-72" d="M 416 0 
L 416 3319 
L 922 3319 
L 922 2816 
Q 1116 3169 1280 3281 
Q 1444 3394 1641 3394 
Q 1925 3394 2219 3213 
L 2025 2691 
Q 1819 2813 1613 2813 
Q 1428 2813 1281 2702 
Q 1134 2591 1072 2394 
Q 978 2094 978 1738 
L 978 0 
L 416 0 
z
" transform="scale(0.015625)"/>
       <path id="ArialMT-6f" d="M 213 1659 
Q 213 2581 725 3025 
Q 1153 3394 1769 3394 
Q 2453 3394 2887 2945 
Q 3322 2497 3322 1706 
Q 3322 1066 3130 698 
Q 2938 331 2570 128 
Q 2203 -75 1769 -75 
Q 1072 -75 642 372 
Q 213 819 213 1659 
z
M 791 1659 
Q 791 1022 1069 705 
Q 1347 388 1769 388 
Q 2188 388 2466 706 
Q 2744 1025 2744 1678 
Q 2744 2294 2464 2611 
Q 2184 2928 1769 2928 
Q 1347 2928 1069 2612 
Q 791 2297 791 1659 
z
" transform="scale(0.015625)"/>
       <path id="ArialMT-62" d="M 941 0 
L 419 0 
L 419 4581 
L 981 4581 
L 981 2947 
Q 1338 3394 1891 3394 
Q 2197 3394 2470 3270 
Q 2744 3147 2920 2923 
Q 3097 2700 3197 2384 
Q 3297 2069 3297 1709 
Q 3297 856 2875 390 
Q 2453 -75 1863 -75 
Q 1275 -75 941 416 
L 941 0 
z
M 934 1684 
Q 934 1088 1097 822 
Q 1363 388 1816 388 
Q 2184 388 2453 708 
Q 2722 1028 2722 1663 
Q 2722 2313 2464 2622 
Q 2206 2931 1841 2931 
Q 1472 2931 1203 2611 
Q 934 2291 934 1684 
z
" transform="scale(0.015625)"/>
       <path id="ArialMT-36" d="M 3184 3459 
L 2625 3416 
Q 2550 3747 2413 3897 
Q 2184 4138 1850 4138 
Q 1581 4138 1378 3988 
Q 1113 3794 959 3422 
Q 806 3050 800 2363 
Q 1003 2672 1297 2822 
Q 1591 2972 1913 2972 
Q 2475 2972 2870 2558 
Q 3266 2144 3266 1488 
Q 3266 1056 3080 686 
Q 2894 316 2569 119 
Q 2244 -78 1831 -78 
Q 1128 -78 684 439 
Q 241 956 241 2144 
Q 241 3472 731 4075 
Q 1159 4600 1884 4600 
Q 2425 4600 2770 4297 
Q 3116 3994 3184 3459 
z
M 888 1484 
Q 888 1194 1011 928 
Q 1134 663 1356 523 
Q 1578 384 1822 384 
Q 2178 384 2434 671 
Q 2691 959 2691 1453 
Q 2691 1928 2437 2201 
Q 2184 2475 1800 2475 
Q 1419 2475 1153 2201 
Q 888 1928 888 1484 
z
" transform="scale(0.015625)"/>
       <path id="ArialMT-2d" d="M 203 1375 
L 203 1941 
L 1931 1941 
L 1931 1375 
L 203 1375 
z
" transform="scale(0.015625)"/>
       <path id="ArialMT-37" d="M 303 3981 
L 303 4522 
L 3269 4522 
L 3269 4084 
Q 2831 3619 2401 2847 
Q 1972 2075 1738 1259 
Q 1569 684 1522 0 
L 944 0 
Q 953 541 1156 1306 
Q 1359 2072 1739 2783 
Q 2119 3494 2547 3981 
L 303 3981 
z
" transform="scale(0.015625)"/>
       <path id="ArialMT-73" d="M 197 991 
L 753 1078 
Q 800 744 1014 566 
Q 1228 388 1613 388 
Q 2000 388 2187 545 
Q 2375 703 2375 916 
Q 2375 1106 2209 1216 
Q 2094 1291 1634 1406 
Q 1016 1563 777 1677 
Q 538 1791 414 1992 
Q 291 2194 291 2438 
Q 291 2659 392 2848 
Q 494 3038 669 3163 
Q 800 3259 1026 3326 
Q 1253 3394 1513 3394 
Q 1903 3394 2198 3281 
Q 2494 3169 2634 2976 
Q 2775 2784 2828 2463 
L 2278 2388 
Q 2241 2644 2061 2787 
Q 1881 2931 1553 2931 
Q 1166 2931 1000 2803 
Q 834 2675 834 2503 
Q 834 2394 903 2306 
Q 972 2216 1119 2156 
Q 1203 2125 1616 2013 
Q 2213 1853 2448 1751 
Q 2684 1650 2818 1456 
Q 2953 1263 2953 975 
Q 2953 694 2789 445 
Q 2625 197 2315 61 
Q 2006 -75 1616 -75 
Q 969 -75 630 194 
Q 291 463 197 991 
z
" transform="scale(0.015625)"/>
      </defs>
      <use xlink:href="#ArialMT-42"/>
      <use xlink:href="#ArialMT-65" x="66.699219"/>
      <use xlink:href="#ArialMT-6e" x="122.314453"/>
      <use xlink:href="#ArialMT-64" x="177.929688"/>
      <use xlink:href="#ArialMT-20" x="233.544922"/>
      <use xlink:href="#ArialMT-50" x="261.328125"/>
      <use xlink:href="#ArialMT-72" x="328.027344"/>
      <use xlink:href="#ArialMT-6f" x="361.328125"/>
      <use xlink:href="#ArialMT-62" x="416.943359"/>
      <use xlink:href="#ArialMT-2e" x="472.558594"/>
      <use xlink:href="#ArialMT-20" x="500.341797"/>
      <use xlink:href="#ArialMT-36" x="528.125"/>
      <use xlink:href="#ArialMT-30" x="583.740234"/>
      <use xlink:href="#ArialMT-2d" x="639.355469"/>
      <use xlink:href="#ArialMT-37" x="672.65625"/>
      <use xlink:href="#ArialMT-30" x="728.271484"/>
      <use xlink:href="#ArialMT-73" x="783.886719"/>
     </g>
    </g>
   </g>
   <g id="matplotlib.axis_2">
    <g id="ytick_1">
     <g id="line2d_4">
      <defs>
       <path id="mc3a621f8bc" d="M 0 0 
L -3.5 0 
" style="stroke: #000000; stroke-width: 0.8"/>
      </defs>
      <g>
       <use xlink:href="#mc3a621f8bc" x="32.90625" y="60.197088" style="stroke: #000000; stroke-width: 0.8"/>
      </g>
     </g>
     <g id="text_5">
      <!-- 0 -->
      <g transform="translate(20.345312 63.775994) scale(0.1 -0.1)">
       <use xlink:href="#ArialMT-30"/>
      </g>
     </g>
    </g>
    <g id="ytick_2">
     <g id="line2d_5">
      <g>
       <use xlink:href="#mc3a621f8bc" x="32.90625" y="10.778906" style="stroke: #000000; stroke-width: 0.8"/>
      </g>
     </g>
     <g id="text_6">
      <!-- 1 -->
      <g transform="translate(20.345312 14.357813) scale(0.1 -0.1)">
       <defs>
        <path id="ArialMT-31" d="M 2384 0 
L 1822 0 
L 1822 3584 
Q 1619 3391 1289 3197 
Q 959 3003 697 2906 
L 697 3450 
Q 1169 3672 1522 3987 
Q 1875 4303 2022 4600 
L 2384 4600 
L 2384 0 
z
" transform="scale(0.015625)"/>
       </defs>
       <use xlink:href="#ArialMT-31"/>
      </g>
     </g>
    </g>
    <g id="text_7">
     <!-- CDF -->
     <g transform="translate(14.357812 45.763778) rotate(-90) scale(0.1 -0.1)">
      <defs>
       <path id="ArialMT-43" d="M 3763 1606 
L 4369 1453 
Q 4178 706 3683 314 
Q 3188 -78 2472 -78 
Q 1731 -78 1267 223 
Q 803 525 561 1097 
Q 319 1669 319 2325 
Q 319 3041 592 3573 
Q 866 4106 1370 4382 
Q 1875 4659 2481 4659 
Q 3169 4659 3637 4309 
Q 4106 3959 4291 3325 
L 3694 3184 
Q 3534 3684 3231 3912 
Q 2928 4141 2469 4141 
Q 1941 4141 1586 3887 
Q 1231 3634 1087 3207 
Q 944 2781 944 2328 
Q 944 1744 1114 1308 
Q 1284 872 1643 656 
Q 2003 441 2422 441 
Q 2931 441 3284 734 
Q 3638 1028 3763 1606 
z
" transform="scale(0.015625)"/>
       <path id="ArialMT-44" d="M 494 0 
L 494 4581 
L 2072 4581 
Q 2606 4581 2888 4516 
Q 3281 4425 3559 4188 
Q 3922 3881 4101 3404 
Q 4281 2928 4281 2316 
Q 4281 1794 4159 1391 
Q 4038 988 3847 723 
Q 3656 459 3429 307 
Q 3203 156 2883 78 
Q 2563 0 2147 0 
L 494 0 
z
M 1100 541 
L 2078 541 
Q 2531 541 2789 625 
Q 3047 709 3200 863 
Q 3416 1078 3536 1442 
Q 3656 1806 3656 2325 
Q 3656 3044 3420 3430 
Q 3184 3816 2847 3947 
Q 2603 4041 2063 4041 
L 1100 4041 
L 1100 541 
z
" transform="scale(0.015625)"/>
       <path id="ArialMT-46" d="M 525 0 
L 525 4581 
L 3616 4581 
L 3616 4041 
L 1131 4041 
L 1131 2622 
L 3281 2622 
L 3281 2081 
L 1131 2081 
L 1131 0 
L 525 0 
z
" transform="scale(0.015625)"/>
      </defs>
      <use xlink:href="#ArialMT-43"/>
      <use xlink:href="#ArialMT-44" x="72.216797"/>
      <use xlink:href="#ArialMT-46" x="144.433594"/>
     </g>
    </g>
   </g>
   <g id="line2d_6">
    <path d="M 35.377159 58.714543 
L 35.876333 58.220361 
L 36.375506 57.231997 
L 36.87468 56.737815 
L 37.373853 56.737815 
L 37.873027 55.25527 
L 38.3722 54.761088 
L 38.871374 54.761088 
L 39.370548 54.761088 
L 39.869721 52.784361 
L 40.368895 51.795997 
L 40.868068 50.807634 
L 41.367242 50.313452 
L 41.866415 48.336724 
L 42.365589 47.842543 
L 42.864762 47.842543 
L 43.363936 46.854179 
L 43.86311 46.359997 
L 44.362283 42.406543 
L 44.861457 40.923997 
L 45.36063 39.935634 
L 45.859804 39.441452 
L 46.358977 37.958906 
L 46.858151 36.970543 
L 47.357324 35.982179 
L 47.856498 34.005452 
L 48.355671 33.017088 
L 48.854845 31.040361 
L 49.354019 28.07527 
L 49.853192 27.581088 
L 50.352366 26.098543 
L 50.851539 24.615997 
L 51.350713 24.121815 
L 51.849886 21.156724 
L 52.34906 19.179997 
L 52.848233 18.685815 
L 53.347407 18.685815 
L 53.846581 17.697452 
L 54.345754 17.20327 
L 54.844928 16.709088 
L 55.344101 16.214906 
L 55.843275 15.226543 
L 56.342448 14.732361 
L 56.841622 14.732361 
L 57.340795 13.743997 
L 57.839969 13.743997 
L 58.339143 13.743997 
L 58.838316 13.249815 
L 59.33749 12.261452 
L 59.836663 11.76727 
L 60.335837 11.76727 
L 60.83501 11.76727 
L 61.334184 11.273088 
L 61.833357 11.273088 
L 62.332531 11.273088 
L 62.831705 11.273088 
L 63.330878 10.778906 
L 63.830052 10.778906 
L 64.329225 10.778906 
L 64.828399 10.778906 
L 65.327572 10.778906 
L 65.826746 10.778906 
L 66.325919 10.778906 
L 66.825093 10.778906 
L 67.324267 10.778906 
L 67.82344 10.778906 
L 68.322614 10.778906 
L 68.821787 10.778906 
L 69.320961 10.778906 
L 69.820134 10.778906 
L 70.319308 10.778906 
L 70.818481 10.778906 
L 71.317655 10.778906 
L 71.816829 10.778906 
L 72.316002 10.778906 
L 72.815176 10.778906 
L 73.314349 10.778906 
L 73.813523 10.778906 
L 74.312696 10.778906 
L 74.81187 10.778906 
L 75.311043 10.778906 
L 75.810217 10.778906 
L 76.30939 10.778906 
L 76.808564 10.778906 
L 77.307738 10.778906 
L 77.806911 10.778906 
L 78.306085 10.778906 
L 78.805258 10.778906 
L 79.304432 10.778906 
L 79.803605 10.778906 
L 80.302779 10.778906 
L 80.801952 10.778906 
L 81.301126 10.778906 
L 81.8003 10.778906 
L 82.299473 10.778906 
L 82.798647 10.778906 
L 83.29782 10.778906 
L 83.796994 10.778906 
L 84.296167 10.778906 
L 84.795341 10.778906 
" clip-path="url(#p8cd210b809)" style="fill: none; stroke: #333333; stroke-width: 1.5; stroke-linecap: square"/>
   </g>
   <g id="line2d_7">
    <path d="M 35.377159 60.197088 
L 35.876333 60.197088 
L 36.375506 59.702906 
L 36.87468 59.702906 
L 37.373853 59.208724 
L 37.873027 59.208724 
L 38.3722 59.208724 
L 38.871374 59.208724 
L 39.370548 59.208724 
L 39.869721 58.714543 
L 40.368895 58.714543 
L 40.868068 58.220361 
L 41.367242 58.220361 
L 41.866415 58.220361 
L 42.365589 58.220361 
L 42.864762 58.220361 
L 43.363936 58.220361 
L 43.86311 58.220361 
L 44.362283 58.220361 
L 44.861457 58.220361 
L 45.36063 57.726179 
L 45.859804 57.726179 
L 46.358977 57.726179 
L 46.858151 57.231997 
L 47.357324 57.231997 
L 47.856498 57.231997 
L 48.355671 56.737815 
L 48.854845 56.243634 
L 49.354019 56.243634 
L 49.853192 56.243634 
L 50.352366 54.266906 
L 50.851539 52.784361 
L 51.350713 52.290179 
L 51.849886 52.290179 
L 52.34906 51.795997 
L 52.848233 50.313452 
L 53.347407 48.830906 
L 53.846581 47.842543 
L 54.345754 47.348361 
L 54.844928 45.865815 
L 55.344101 44.38327 
L 55.843275 43.889088 
L 56.342448 43.394906 
L 56.841622 41.418179 
L 57.340795 40.923997 
L 57.839969 40.429815 
L 58.339143 39.935634 
L 58.838316 39.935634 
L 59.33749 38.453088 
L 59.836663 36.476361 
L 60.335837 34.993815 
L 60.83501 34.993815 
L 61.334184 34.993815 
L 61.833357 32.028724 
L 62.332531 31.040361 
L 62.831705 29.557815 
L 63.330878 29.063634 
L 63.830052 28.07527 
L 64.329225 26.592724 
L 64.828399 26.098543 
L 65.327572 25.604361 
L 65.826746 23.133452 
L 66.325919 23.133452 
L 66.825093 22.63927 
L 67.324267 21.650906 
L 67.82344 21.650906 
L 68.322614 20.662543 
L 68.821787 20.168361 
L 69.320961 19.674179 
L 69.820134 19.674179 
L 70.319308 18.685815 
L 70.818481 17.697452 
L 71.317655 17.20327 
L 71.816829 16.214906 
L 72.316002 15.226543 
L 72.815176 15.226543 
L 73.314349 14.732361 
L 73.813523 13.743997 
L 74.312696 13.743997 
L 74.81187 13.743997 
L 75.311043 12.755634 
L 75.810217 12.755634 
L 76.30939 12.261452 
L 76.808564 12.261452 
L 77.307738 12.261452 
L 77.806911 12.261452 
L 78.306085 12.261452 
L 78.805258 11.76727 
L 79.304432 11.273088 
L 79.803605 11.273088 
L 80.302779 11.273088 
L 80.801952 11.273088 
L 81.301126 10.778906 
L 81.8003 10.778906 
L 82.299473 10.778906 
L 82.798647 10.778906 
L 83.29782 10.778906 
L 83.796994 10.778906 
L 84.296167 10.778906 
L 84.795341 10.778906 
" clip-path="url(#p8cd210b809)" style="fill: none; stroke: #888888; stroke-width: 1.5; stroke-linecap: square"/>
   </g>
   <g id="line2d_8">
    <path d="M 35.377159 60.197088 
L 35.876333 60.197088 
L 36.375506 60.197088 
L 36.87468 60.197088 
L 37.373853 60.197088 
L 37.873027 60.197088 
L 38.3722 60.197088 
L 38.871374 60.197088 
L 39.370548 60.197088 
L 39.869721 60.197088 
L 40.368895 60.197088 
L 40.868068 60.197088 
L 41.367242 60.197088 
L 41.866415 60.197088 
L 42.365589 60.197088 
L 42.864762 60.197088 
L 43.363936 60.197088 
L 43.86311 60.197088 
L 44.362283 60.197088 
L 44.861457 60.197088 
L 45.36063 60.197088 
L 45.859804 60.197088 
L 46.358977 60.197088 
L 46.858151 60.197088 
L 47.357324 60.197088 
L 47.856498 60.197088 
L 48.355671 60.197088 
L 48.854845 60.197088 
L 49.354019 60.197088 
L 49.853192 60.197088 
L 50.352366 60.197088 
L 50.851539 60.197088 
L 51.350713 60.197088 
L 51.849886 60.197088 
L 52.34906 60.197088 
L 52.848233 60.197088 
L 53.347407 60.197088 
L 53.846581 59.702906 
L 54.345754 59.208724 
L 54.844928 58.220361 
L 55.344101 57.231997 
L 55.843275 56.243634 
L 56.342448 55.749452 
L 56.841622 53.772724 
L 57.340795 53.278543 
L 57.839969 53.278543 
L 58.339143 50.807634 
L 58.838316 49.81927 
L 59.33749 49.325088 
L 59.836663 49.325088 
L 60.335837 46.359997 
L 60.83501 45.865815 
L 61.334184 45.371634 
L 61.833357 43.889088 
L 62.332531 42.900724 
L 62.831705 41.418179 
L 63.330878 38.94727 
L 63.830052 38.453088 
L 64.329225 36.970543 
L 64.828399 35.487997 
L 65.327572 34.499634 
L 65.826746 32.028724 
L 66.325919 30.546179 
L 66.825093 28.07527 
L 67.324267 26.592724 
L 67.82344 25.110179 
L 68.322614 24.121815 
L 68.821787 24.121815 
L 69.320961 22.63927 
L 69.820134 20.662543 
L 70.319308 20.662543 
L 70.818481 20.168361 
L 71.317655 19.674179 
L 71.816829 19.179997 
L 72.316002 18.685815 
L 72.815176 17.20327 
L 73.314349 16.214906 
L 73.813523 15.226543 
L 74.312696 14.732361 
L 74.81187 14.238179 
L 75.311043 13.743997 
L 75.810217 13.743997 
L 76.30939 13.249815 
L 76.808564 13.249815 
L 77.307738 12.755634 
L 77.806911 12.755634 
L 78.306085 12.261452 
L 78.805258 11.76727 
L 79.304432 11.76727 
L 79.803605 11.76727 
L 80.302779 11.273088 
L 80.801952 11.273088 
L 81.301126 11.273088 
L 81.8003 11.273088 
L 82.299473 11.273088 
L 82.798647 10.778906 
L 83.29782 10.778906 
L 83.796994 10.778906 
L 84.296167 10.778906 
L 84.795341 10.778906 
" clip-path="url(#p8cd210b809)" style="fill: none; stroke: #1e8f33; stroke-width: 1.5; stroke-linecap: square"/>
   </g>
   <g id="line2d_9">
    <path d="M 35.377159 60.197088 
L 35.876333 60.197088 
L 36.375506 60.197088 
L 36.87468 60.197088 
L 37.373853 60.197088 
L 37.873027 60.197088 
L 38.3722 60.197088 
L 38.871374 60.197088 
L 39.370548 60.197088 
L 39.869721 60.197088 
L 40.368895 60.197088 
L 40.868068 60.197088 
L 41.367242 60.197088 
L 41.866415 60.197088 
L 42.365589 60.197088 
L 42.864762 60.197088 
L 43.363936 60.197088 
L 43.86311 60.197088 
L 44.362283 60.197088 
L 44.861457 60.197088 
L 45.36063 60.197088 
L 45.859804 59.702906 
L 46.358977 59.208724 
L 46.858151 58.714543 
L 47.357324 58.714543 
L 47.856498 58.714543 
L 48.355671 58.714543 
L 48.854845 58.714543 
L 49.354019 58.714543 
L 49.853192 58.220361 
L 50.352366 58.220361 
L 50.851539 58.220361 
L 51.350713 57.231997 
L 51.849886 55.749452 
L 52.34906 55.749452 
L 52.848233 55.25527 
L 53.347407 55.25527 
L 53.846581 54.761088 
L 54.345754 54.761088 
L 54.844928 53.772724 
L 55.344101 53.278543 
L 55.843275 53.278543 
L 56.342448 52.290179 
L 56.841622 52.290179 
L 57.340795 52.290179 
L 57.839969 51.301815 
L 58.339143 50.807634 
L 58.838316 48.830906 
L 59.33749 47.842543 
L 59.836663 46.854179 
L 60.335837 44.877452 
L 60.83501 41.418179 
L 61.334184 40.923997 
L 61.833357 40.429815 
L 62.332531 37.464724 
L 62.831705 36.476361 
L 63.330878 35.982179 
L 63.830052 34.993815 
L 64.329225 34.499634 
L 64.828399 33.51127 
L 65.327572 32.028724 
L 65.826746 31.534543 
L 66.325919 31.040361 
L 66.825093 30.546179 
L 67.324267 30.546179 
L 67.82344 30.546179 
L 68.322614 30.546179 
L 68.821787 30.546179 
L 69.320961 30.051997 
L 69.820134 29.557815 
L 70.319308 29.557815 
L 70.818481 29.063634 
L 71.317655 28.07527 
L 71.816829 27.086906 
L 72.316002 26.592724 
L 72.815176 24.121815 
L 73.314349 23.627634 
L 73.813523 22.63927 
L 74.312696 22.63927 
L 74.81187 21.650906 
L 75.311043 19.179997 
L 75.810217 17.20327 
L 76.30939 17.20327 
L 76.808564 16.214906 
L 77.307738 15.226543 
L 77.806911 15.226543 
L 78.306085 14.238179 
L 78.805258 14.238179 
L 79.304432 13.249815 
L 79.803605 12.261452 
L 80.302779 12.261452 
L 80.801952 11.76727 
L 81.301126 11.76727 
L 81.8003 11.76727 
L 82.299473 11.76727 
L 82.798647 11.76727 
L 83.29782 11.273088 
L 83.796994 11.273088 
L 84.296167 11.273088 
L 84.795341 10.778906 
" clip-path="url(#p8cd210b809)" style="fill: none; stroke: #4ecc65; stroke-width: 1.5; stroke-linecap: square"/>
   </g>
   <g id="patch_3">
    <path d="M 32.90625 62.667997 
L 32.90625 8.307997 
" style="fill: none; stroke: #000000; stroke-width: 0.8; stroke-linejoin: miter; stroke-linecap: square"/>
   </g>
   <g id="patch_4">
    <path d="M 32.90625 62.667997 
L 87.26625 62.667997 
" style="fill: none; stroke: #000000; stroke-width: 0.8; stroke-linejoin: miter; stroke-linecap: square"/>
   </g>
  </g>
 </g>
 <defs>
  <clipPath id="p8cd210b809">
   <rect x="32.90625" y="8.307997" width="54.36" height="54.36"/>
  </clipPath>
 </defs>
</svg>
